<?xml version="1.0" encoding="utf-8"?>
<!-- Generator: Adobe Illustrator 17.0.0, SVG Export Plug-In . SVG Version: 6.00 Build 0)  -->
<!DOCTYPE svg PUBLIC "-//W3C//DTD SVG 1.1//EN" "http://www.w3.org/Graphics/SVG/1.1/DTD/svg11.dtd">
<svg version="1.1" id="OBJECTS" xmlns="http://www.w3.org/2000/svg" xmlns:xlink="http://www.w3.org/1999/xlink" x="0px" y="0px"
	 width="500px" height="500px" viewBox="0 0 500 500" enable-background="new 0 0 500 500" xml:space="preserve">
<g>
	<g>
		<g>
			<path fill="#76CCBB" d="M213.752,150.862c-0.109,0-0.219-0.036-0.311-0.109c-1.036-0.825-2.101-1.636-3.167-2.41
				c-0.223-0.162-0.273-0.475-0.11-0.698c0.162-0.224,0.475-0.273,0.698-0.11c1.077,0.783,2.154,1.603,3.202,2.437
				c0.216,0.172,0.251,0.487,0.08,0.703C214.045,150.797,213.899,150.862,213.752,150.862z"/>
		</g>
		<g>
			<path fill="#76CCBB" d="M113.281,388.869c-0.021,0-0.042-0.001-0.063-0.004c-2.901-0.369-5.514-0.735-7.989-1.119
				c-0.273-0.042-0.46-0.298-0.417-0.57c0.042-0.272,0.296-0.46,0.571-0.418c2.466,0.382,5.07,0.747,7.962,1.115
				c0.274,0.035,0.468,0.285,0.433,0.56C113.744,388.684,113.529,388.869,113.281,388.869z M97.372,386.372
				c-0.032,0-0.064-0.003-0.096-0.009c-2.731-0.532-5.385-1.119-7.887-1.744c-0.268-0.067-0.431-0.339-0.364-0.606
				c0.067-0.269,0.337-0.43,0.606-0.364c2.486,0.621,5.122,1.204,7.836,1.732c0.271,0.053,0.448,0.315,0.395,0.587
				C97.816,386.206,97.606,386.372,97.372,386.372z M81.765,382.433c-0.051,0-0.103-0.008-0.153-0.024
				c-2.646-0.852-5.201-1.788-7.598-2.782c-0.255-0.106-0.376-0.398-0.27-0.653c0.106-0.255,0.398-0.379,0.654-0.271
				c2.371,0.984,4.901,1.911,7.521,2.755c0.263,0.084,0.407,0.366,0.323,0.629C82.173,382.299,81.977,382.433,81.765,382.433z
				 M66.926,376.232c-0.08,0-0.16-0.019-0.235-0.059c-2.417-1.291-4.748-2.703-6.929-4.199c-0.228-0.156-0.286-0.467-0.129-0.695
				c0.156-0.226,0.468-0.284,0.695-0.129c2.15,1.475,4.45,2.868,6.834,4.141c0.244,0.131,0.336,0.434,0.206,0.677
				C67.278,376.137,67.105,376.232,66.926,376.232z M53.702,367.113c-0.119,0-0.237-0.042-0.333-0.127
				c-1.997-1.781-3.907-3.731-5.677-5.795c-0.18-0.209-0.156-0.524,0.054-0.705c0.21-0.178,0.526-0.155,0.705,0.055
				c1.742,2.029,3.62,3.947,5.584,5.699c0.206,0.184,0.224,0.5,0.04,0.706C53.976,367.056,53.839,367.113,53.702,367.113z
				 M43.234,354.936c-0.163,0-0.322-0.079-0.418-0.226c-1.472-2.236-2.83-4.603-4.035-7.032c-0.123-0.248-0.022-0.548,0.226-0.671
				c0.246-0.122,0.547-0.021,0.67,0.226c1.188,2.395,2.525,4.726,3.975,6.929c0.152,0.23,0.088,0.54-0.143,0.692
				C43.424,354.91,43.328,354.936,43.234,354.936z M36.082,340.547c-0.205,0-0.397-0.127-0.471-0.332
				c-0.905-2.53-1.674-5.146-2.285-7.776c-0.063-0.27,0.104-0.538,0.374-0.601c0.267-0.062,0.538,0.105,0.6,0.374
				c0.603,2.593,1.36,5.173,2.252,7.667c0.093,0.26-0.042,0.546-0.302,0.639C36.195,340.537,36.138,340.547,36.082,340.547z
				 M32.446,324.893c-0.251,0-0.467-0.188-0.496-0.443c-0.294-2.589-0.444-5.214-0.444-7.802l0.001-0.294
				c0.001-0.274,0.225-0.497,0.5-0.497c0.26,0.028,0.501,0.226,0.5,0.503l-0.001,0.291c0,2.547,0.147,5.134,0.437,7.686
				c0.031,0.274-0.166,0.522-0.44,0.554C32.484,324.892,32.465,324.893,32.446,324.893z M32.527,308.826
				c-0.021,0-0.042-0.001-0.063-0.004c-0.274-0.035-0.468-0.285-0.433-0.559c0.341-2.698,0.854-5.378,1.523-7.966
				c0.069-0.268,0.34-0.428,0.609-0.359c0.268,0.069,0.428,0.342,0.359,0.609c-0.658,2.547-1.163,5.186-1.499,7.841
				C32.991,308.641,32.776,308.826,32.527,308.826z M36.561,293.283c-0.063,0-0.126-0.012-0.188-0.037
				c-0.256-0.104-0.379-0.396-0.275-0.651c0.425-1.043,0.885-2.088,1.368-3.104c0.668-1.404,1.4-2.814,2.175-4.189
				c0.135-0.241,0.44-0.327,0.681-0.19c0.24,0.136,0.326,0.44,0.19,0.681c-0.764,1.355-1.484,2.745-2.143,4.129
				c-0.475,0.999-0.928,2.026-1.345,3.052C36.946,293.166,36.759,293.283,36.561,293.283z M44.41,279.265
				c-0.101,0-0.203-0.03-0.291-0.094c-0.224-0.161-0.276-0.474-0.115-0.697c1.523-2.123,3.215-4.257,5.029-6.343
				c0.183-0.208,0.497-0.23,0.706-0.049c0.208,0.181,0.23,0.497,0.049,0.705c-1.794,2.063-3.467,4.172-4.972,6.269
				C44.719,279.193,44.565,279.265,44.41,279.265z M54.933,267.101c-0.129,0-0.258-0.05-0.356-0.149
				c-0.194-0.196-0.191-0.514,0.006-0.707c1.831-1.802,3.829-3.647,5.937-5.484c0.207-0.183,0.523-0.162,0.706,0.049
				c0.182,0.208,0.16,0.523-0.048,0.705c-2.093,1.824-4.076,3.655-5.893,5.443C55.187,267.053,55.06,267.101,54.933,267.101z
				 M67.046,256.496c-0.147,0-0.293-0.064-0.392-0.189c-0.172-0.216-0.136-0.53,0.081-0.702c1.964-1.561,4.06-3.166,6.406-4.908
				c0.223-0.165,0.535-0.12,0.7,0.104c0.165,0.222,0.119,0.534-0.103,0.699c-2.337,1.736-4.424,3.335-6.38,4.889
				C67.265,256.461,67.155,256.496,67.046,256.496z M79.954,246.864c-0.156,0-0.31-0.072-0.407-0.209
				c-0.161-0.225-0.108-0.537,0.116-0.698c1.906-1.361,3.814-2.708,5.712-4.048l0.861-0.608c0.225-0.16,0.537-0.106,0.697,0.12
				c0.16,0.225,0.106,0.537-0.12,0.697l-0.862,0.609c-1.896,1.338-3.802,2.684-5.707,4.045
				C80.156,246.834,80.055,246.864,79.954,246.864z M93.022,237.453c-0.149,0-0.297-0.066-0.396-0.194
				c-0.169-0.218-0.129-0.532,0.089-0.702c2.35-1.82,4.337-3.52,6.075-5.196c0.199-0.191,0.516-0.186,0.707,0.013
				c0.192,0.199,0.186,0.515-0.013,0.707c-1.764,1.702-3.778,3.425-6.157,5.268C93.237,237.419,93.129,237.453,93.022,237.453z
				 M104.445,226.179c-0.101,0-0.204-0.031-0.292-0.095c-0.224-0.162-0.274-0.474-0.113-0.698c1.605-2.225,2.911-4.547,3.88-6.902
				c0.106-0.255,0.397-0.375,0.653-0.272c0.255,0.105,0.377,0.397,0.272,0.653c-0.999,2.427-2.343,4.817-3.994,7.106
				C104.753,226.107,104.6,226.179,104.445,226.179z M110.335,211.395c-0.015,0-0.029,0-0.044-0.002
				c-0.275-0.024-0.479-0.267-0.455-0.542c0.057-0.652,0.086-1.31,0.086-1.956c0-0.503-0.018-1.007-0.053-1.512
				c-0.099-1.414-0.333-2.836-0.717-4.346c-0.068-0.268,0.094-0.54,0.361-0.608c0.264-0.066,0.54,0.093,0.608,0.362
				c0.398,1.569,0.642,3.048,0.745,4.522c0.037,0.528,0.056,1.056,0.056,1.582c0,0.674-0.03,1.362-0.09,2.042
				C110.809,211.199,110.591,211.395,110.335,211.395z M106.859,195.868c-0.19,0-0.373-0.109-0.456-0.294
				c-0.534-1.18-1.095-2.355-1.656-3.532c-0.596-1.25-1.193-2.502-1.761-3.764c-0.113-0.252-0.001-0.548,0.251-0.661
				c0.25-0.114,0.547-0.001,0.661,0.251c0.564,1.255,1.158,2.5,1.751,3.743c0.564,1.183,1.127,2.364,1.664,3.55
				c0.114,0.251,0.002,0.548-0.25,0.662C106.998,195.854,106.928,195.868,106.859,195.868z M100.69,181.018
				c-0.224,0-0.428-0.151-0.484-0.378c-0.622-2.481-0.938-5.073-0.938-7.702l0.002-0.403c0.003-0.274,0.227-0.495,0.5-0.495
				c0.002,0,0.003,0,0.005,0c0.276,0.003,0.498,0.229,0.495,0.505l-0.002,0.392c0,2.547,0.305,5.056,0.907,7.458
				c0.067,0.268-0.095,0.54-0.363,0.606C100.771,181.013,100.73,181.018,100.69,181.018z M100.81,165.073
				c-0.04,0-0.08-0.005-0.121-0.015c-0.268-0.066-0.432-0.337-0.365-0.605c0.641-2.592,1.571-5.168,2.764-7.658
				c0.119-0.249,0.416-0.356,0.667-0.234c0.249,0.119,0.354,0.418,0.234,0.667c-1.164,2.427-2.07,4.939-2.695,7.465
				C101.239,164.921,101.035,165.073,100.81,165.073z M107.693,150.626c-0.104,0-0.208-0.032-0.297-0.098
				c-0.222-0.164-0.269-0.478-0.104-0.699c1.623-2.192,3.451-4.229,5.436-6.053c0.203-0.186,0.521-0.173,0.707,0.03
				c0.187,0.203,0.173,0.52-0.03,0.707c-1.938,1.782-3.724,3.771-5.309,5.912C107.997,150.556,107.847,150.626,107.693,150.626z
				 M203.856,143.992c-0.088,0-0.177-0.023-0.257-0.072c-2.271-1.367-4.637-2.656-7.031-3.832c-0.248-0.122-0.35-0.421-0.229-0.669
				c0.121-0.249,0.42-0.35,0.669-0.229c2.419,1.188,4.811,2.491,7.106,3.873c0.237,0.142,0.313,0.45,0.17,0.686
				C204.191,143.906,204.026,143.992,203.856,143.992z M119.457,139.762c-0.165,0-0.327-0.082-0.422-0.231
				c-0.148-0.233-0.081-0.542,0.152-0.69c2.231-1.424,4.642-2.709,7.165-3.821c0.253-0.112,0.547,0.004,0.659,0.256
				c0.111,0.253-0.003,0.548-0.256,0.659c-2.476,1.091-4.842,2.353-7.03,3.749C119.642,139.737,119.549,139.762,119.457,139.762z
				 M189.419,136.9c-0.061,0-0.122-0.011-0.182-0.034c-2.479-0.967-5.028-1.84-7.577-2.594c-0.265-0.079-0.416-0.356-0.337-0.622
				c0.079-0.265,0.358-0.415,0.622-0.337c2.575,0.762,5.15,1.644,7.656,2.622c0.257,0.101,0.384,0.39,0.284,0.647
				C189.807,136.779,189.618,136.9,189.419,136.9z M134.121,133.242c-0.217,0-0.417-0.142-0.48-0.361
				c-0.077-0.266,0.076-0.542,0.341-0.62c2.528-0.731,5.189-1.333,7.908-1.786c0.272-0.048,0.53,0.139,0.575,0.411
				c0.045,0.272-0.139,0.53-0.411,0.575c-2.681,0.447-5.303,1.039-7.794,1.76C134.214,133.236,134.167,133.242,134.121,133.242z
				 M173.994,132.334c-0.034,0-0.067-0.003-0.102-0.01c-2.609-0.538-5.269-0.969-7.904-1.281c-0.274-0.033-0.47-0.281-0.438-0.555
				c0.033-0.274,0.282-0.471,0.555-0.438c2.664,0.315,5.351,0.75,7.989,1.294c0.271,0.056,0.444,0.32,0.389,0.591
				C174.435,132.172,174.227,132.334,173.994,132.334z M149.97,130.565c-0.262,0-0.482-0.204-0.499-0.469
				c-0.017-0.275,0.192-0.513,0.468-0.53c1.646-0.102,3.332-0.156,5.012-0.161h0.268c0.939,0,1.878,0.015,2.816,0.043
				c0.276,0.009,0.493,0.239,0.484,0.516c-0.008,0.275-0.201,0.494-0.515,0.484c-0.928-0.029-1.856-0.043-2.785-0.043h-0.266
				c-1.659,0.005-3.325,0.059-4.952,0.159C149.991,130.564,149.98,130.565,149.97,130.565z"/>
		</g>
		<g>
			<path fill="#76CCBB" d="M125.355,390.262c-0.018,0-0.036-0.001-0.054-0.003c-1.322-0.143-2.648-0.287-3.979-0.436
				c-0.274-0.031-0.472-0.278-0.441-0.553c0.031-0.274,0.279-0.466,0.553-0.441c1.328,0.148,2.653,0.293,3.975,0.436
				c0.274,0.029,0.473,0.276,0.443,0.551C125.824,390.072,125.607,390.262,125.355,390.262z"/>
		</g>
	</g>
	<g>
		<g>
			<path fill="#76CCBB" d="M318.875,166.839c-0.246,0-0.461-0.183-0.494-0.434c-0.037-0.274,0.155-0.525,0.429-0.562
				c1.323-0.177,2.649-0.342,3.979-0.495c0.253-0.038,0.521,0.165,0.554,0.439c0.031,0.274-0.166,0.522-0.44,0.554
				c-1.322,0.152-2.643,0.317-3.96,0.493C318.92,166.837,318.897,166.839,318.875,166.839z"/>
		</g>
		<g>
			<path fill="#76CCBB" d="M361.671,408.274c-2.656,0-5.349-0.039-8.002-0.117c-0.276-0.009-0.493-0.238-0.485-0.515
				s0.232-0.505,0.515-0.485c2.644,0.078,5.326,0.117,7.973,0.117c0.276,0,0.5,0.224,0.5,0.5S361.947,408.274,361.671,408.274z
				 M369.658,408.159c-0.27,0-0.492-0.215-0.5-0.485c-0.008-0.276,0.21-0.507,0.485-0.515c2.634-0.076,5.314-0.192,7.966-0.347
				c0.271-0.025,0.512,0.194,0.528,0.47c0.017,0.276-0.194,0.513-0.47,0.528c-2.662,0.154-5.352,0.271-7.995,0.349
				C369.668,408.159,369.663,408.159,369.658,408.159z M385.603,407.23c-0.256,0-0.475-0.196-0.497-0.457
				c-0.024-0.274,0.18-0.517,0.455-0.541c2.626-0.229,5.295-0.501,7.933-0.81c0.267-0.027,0.521,0.165,0.555,0.439
				c0.031,0.274-0.165,0.522-0.439,0.555c-2.646,0.309-5.325,0.582-7.961,0.812C385.633,407.229,385.618,407.23,385.603,407.23z
				 M401.471,405.377c-0.246,0-0.46-0.182-0.494-0.433c-0.038-0.273,0.153-0.525,0.428-0.563l0.207-0.03
				c2.965-0.437,5.392-0.851,7.637-1.304c0.267-0.057,0.534,0.12,0.589,0.392c0.055,0.271-0.121,0.534-0.392,0.589
				c-2.263,0.456-4.705,0.873-7.687,1.313l-0.22,0.031C401.516,405.375,401.494,405.377,401.471,405.377z M417.092,402.1
				c-0.214,0-0.411-0.138-0.478-0.353c-0.082-0.264,0.066-0.544,0.33-0.625c2.695-0.832,5.105-1.77,7.367-2.866
				c0.249-0.12,0.547-0.017,0.668,0.232c0.12,0.248,0.017,0.547-0.232,0.668c-2.308,1.118-4.763,2.074-7.508,2.921
				C417.19,402.094,417.14,402.1,417.092,402.1z M431.323,395.033c-0.148,0-0.296-0.066-0.395-0.192
				c-0.17-0.218-0.131-0.532,0.087-0.702c2.112-1.646,3.987-3.506,5.573-5.526c0.172-0.219,0.486-0.252,0.702-0.085
				c0.218,0.171,0.255,0.485,0.085,0.702c-1.637,2.085-3.569,4.002-5.745,5.698C431.539,394.999,431.431,395.033,431.323,395.033z
				 M440.974,382.535c-0.061,0-0.123-0.011-0.183-0.034c-0.257-0.102-0.384-0.392-0.283-0.648c0.965-2.455,1.483-4.967,1.541-7.464
				l0.003-0.147c0.006-0.275,0.22-0.526,0.51-0.49c0.276,0.006,0.495,0.233,0.49,0.51l-0.003,0.149
				c-0.061,2.617-0.603,5.243-1.609,7.808C441.362,382.415,441.174,382.535,440.974,382.535z M441.264,366.91
				c-0.208,0-0.402-0.131-0.473-0.338c-0.808-2.357-1.999-4.708-3.542-6.987c-0.155-0.229-0.095-0.539,0.134-0.694
				c0.229-0.156,0.539-0.096,0.694,0.134c1.593,2.353,2.824,4.783,3.659,7.224c0.09,0.262-0.05,0.546-0.311,0.635
				C441.373,366.901,441.318,366.91,441.264,366.91z M432.522,353.709c-0.126,0-0.252-0.047-0.349-0.142
				c-0.58-0.564-1.184-1.12-1.794-1.649c-1.312-1.141-2.719-2.249-4.3-3.389c-0.225-0.161-0.275-0.474-0.113-0.697
				c0.161-0.226,0.475-0.276,0.697-0.113c1.606,1.157,3.037,2.284,4.372,3.444c0.624,0.542,1.241,1.109,1.835,1.688
				c0.198,0.192,0.202,0.51,0.01,0.707C432.782,353.658,432.652,353.709,432.522,353.709z M419.694,344.239
				c-0.089,0-0.179-0.023-0.26-0.073c-1.46-0.894-2.935-1.769-4.409-2.644c-0.815-0.483-1.63-0.967-2.442-1.454
				c-0.237-0.142-0.314-0.448-0.172-0.686c0.142-0.237,0.449-0.315,0.686-0.172c0.812,0.485,1.625,0.969,2.438,1.451
				c1.479,0.878,2.957,1.755,4.421,2.65c0.235,0.145,0.31,0.452,0.166,0.688C420.027,344.154,419.863,344.239,419.694,344.239z
				 M406.1,335.854c-0.102,0-0.203-0.03-0.291-0.094c-2.608-1.866-4.535-3.694-5.888-5.587c-0.161-0.225-0.109-0.537,0.115-0.698
				c0.224-0.159,0.537-0.109,0.697,0.116c1.289,1.802,3.139,3.554,5.657,5.356c0.225,0.16,0.276,0.473,0.115,0.697
				C406.409,335.782,406.256,335.854,406.1,335.854z M397.926,322.92c-0.004,0-0.009,0-0.013,0
				c-0.276-0.008-0.494-0.237-0.487-0.513c0.065-2.492,0.887-5.109,2.442-7.777c0.139-0.239,0.445-0.32,0.684-0.18
				c0.238,0.139,0.319,0.445,0.18,0.684c-1.47,2.521-2.245,4.977-2.306,7.299C398.419,322.704,398.196,322.92,397.926,322.92z
				 M405.222,309.111c-0.126,0-0.252-0.047-0.349-0.142c-0.198-0.192-0.202-0.51-0.01-0.707l0.334-0.336
				c1.683-1.676,3.515-3.339,5.6-5.084c0.212-0.178,0.526-0.149,0.705,0.063c0.177,0.212,0.148,0.527-0.063,0.705
				c-2.063,1.726-3.874,3.369-5.537,5.026l-0.321,0.323C405.481,309.06,405.351,309.111,405.222,309.111z M417.396,298.79
				c-0.151,0-0.302-0.069-0.4-0.2c-0.165-0.221-0.12-0.534,0.101-0.7c1.771-1.327,3.562-2.631,5.353-3.936l1.092-0.796
				c0.223-0.161,0.535-0.113,0.699,0.109c0.162,0.224,0.113,0.536-0.109,0.699l-1.093,0.796c-1.787,1.302-3.575,2.603-5.342,3.928
				C417.606,298.758,417.501,298.79,417.396,298.79z M430.243,289.291c-0.149,0-0.298-0.067-0.396-0.195
				c-0.168-0.219-0.127-0.532,0.092-0.701c0.659-0.508,1.314-1.021,1.965-1.539c1.472-1.173,2.877-2.354,4.178-3.51
				c0.204-0.182,0.522-0.165,0.706,0.042c0.184,0.206,0.165,0.522-0.042,0.706c-1.313,1.168-2.733,2.36-4.219,3.543
				c-0.654,0.522-1.313,1.039-1.979,1.551C430.457,289.257,430.349,289.291,430.243,289.291z M442.115,278.628
				c-0.12,0-0.241-0.043-0.337-0.131c-0.204-0.186-0.219-0.502-0.032-0.706c1.864-2.044,3.52-4.127,4.92-6.191
				c0.155-0.229,0.467-0.286,0.694-0.134c0.229,0.155,0.288,0.466,0.134,0.694c-1.428,2.104-3.113,4.226-5.01,6.305
				C442.386,278.573,442.251,278.628,442.115,278.628z M450.941,265.402c-0.066,0-0.134-0.013-0.198-0.041
				c-0.254-0.109-0.37-0.403-0.261-0.657c0.598-1.384,1.107-2.8,1.516-4.21c0.309-1.063,0.573-2.175,0.789-3.307
				c0.052-0.271,0.311-0.448,0.585-0.397c0.271,0.052,0.449,0.313,0.397,0.585c-0.222,1.162-0.494,2.306-0.811,3.397
				c-0.42,1.45-0.944,2.906-1.559,4.328C451.319,265.289,451.135,265.402,450.941,265.402z M454.025,249.838
				c-0.001,0-0.002,0-0.003,0c-0.276-0.002-0.499-0.226-0.497-0.502l0.002-0.481c0-1.582-0.071-3.246-0.213-4.946
				c-0.07-0.83-0.154-1.656-0.254-2.479c-0.033-0.274,0.162-0.523,0.436-0.557c0.267-0.031,0.523,0.162,0.557,0.437
				c0.102,0.835,0.188,1.674,0.258,2.516c0.144,1.729,0.217,3.42,0.217,5.03l-0.002,0.484
				C454.523,249.614,454.3,249.838,454.025,249.838z M452.138,234.019c-0.227,0-0.431-0.154-0.486-0.383
				c-0.609-2.532-1.379-5.085-2.285-7.588c-0.095-0.26,0.04-0.546,0.3-0.641c0.257-0.093,0.546,0.04,0.64,0.3
				c0.92,2.538,1.699,5.126,2.318,7.694c0.064,0.269-0.101,0.539-0.369,0.604C452.216,234.015,452.176,234.019,452.138,234.019z
				 M446.722,219.027c-0.185,0-0.363-0.104-0.449-0.281c-1.144-2.35-2.431-4.689-3.825-6.955c-0.145-0.235-0.071-0.543,0.164-0.688
				c0.231-0.144,0.542-0.073,0.688,0.164c1.412,2.293,2.715,4.663,3.872,7.042c0.121,0.248,0.018,0.547-0.23,0.668
				C446.87,219.011,446.796,219.027,446.722,219.027z M438.37,205.431c-0.151,0-0.301-0.069-0.399-0.199
				c-1.575-2.092-3.277-4.154-5.057-6.126c-0.186-0.205-0.169-0.521,0.036-0.706c0.205-0.186,0.521-0.169,0.706,0.036
				c1.8,1.995,3.521,4.079,5.113,6.195c0.166,0.221,0.122,0.534-0.099,0.7C438.581,205.399,438.475,205.431,438.37,205.431z
				 M427.683,193.575c-0.122,0-0.245-0.044-0.342-0.135c-1.92-1.794-3.948-3.536-6.027-5.177c-0.217-0.171-0.254-0.485-0.083-0.702
				c0.172-0.216,0.486-0.253,0.702-0.083c2.102,1.659,4.15,3.418,6.092,5.231c0.201,0.188,0.212,0.505,0.023,0.707
				C427.95,193.522,427.817,193.575,427.683,193.575z M415.156,183.684c-0.096,0-0.191-0.027-0.276-0.083
				c-2.2-1.461-4.486-2.846-6.794-4.116c-0.242-0.133-0.33-0.437-0.197-0.679c0.135-0.243,0.439-0.329,0.68-0.197
				c2.332,1.283,4.642,2.683,6.864,4.159c0.23,0.153,0.293,0.463,0.141,0.693C415.476,183.606,415.317,183.684,415.156,183.684z
				 M401.18,175.988c-0.069,0-0.139-0.014-0.205-0.044c-2.387-1.076-4.863-2.086-7.36-3.002c-0.26-0.095-0.393-0.382-0.298-0.642
				c0.096-0.259,0.385-0.393,0.642-0.297c2.521,0.925,5.02,1.944,7.427,3.029c0.252,0.114,0.364,0.41,0.251,0.662
				C401.552,175.878,401.37,175.988,401.18,175.988z M386.198,170.477c-0.046,0-0.094-0.006-0.141-0.02
				c-2.501-0.731-5.093-1.398-7.703-1.983c-0.27-0.061-0.438-0.328-0.379-0.597c0.061-0.269,0.324-0.438,0.598-0.378
				c2.631,0.59,5.243,1.262,7.766,1.999c0.265,0.078,0.417,0.355,0.339,0.62C386.614,170.335,386.415,170.477,386.198,170.477z
				 M370.621,166.973c-0.027,0-0.054-0.002-0.081-0.006c-2.573-0.419-5.228-0.776-7.889-1.06c-0.275-0.029-0.474-0.275-0.444-0.55
				s0.292-0.472,0.55-0.444c2.68,0.286,5.353,0.645,7.943,1.067c0.272,0.044,0.458,0.301,0.413,0.574
				C371.073,166.799,370.861,166.973,370.621,166.973z M330.796,165.58c-0.259,0-0.478-0.199-0.498-0.462
				c-0.021-0.275,0.186-0.516,0.461-0.537c2.686-0.206,5.375-0.358,7.995-0.452c0.269-0.024,0.508,0.206,0.518,0.481
				c0.01,0.276-0.206,0.508-0.482,0.518c-2.605,0.093-5.282,0.245-7.954,0.45C330.822,165.58,330.809,165.58,330.796,165.58z
				 M354.743,165.267c-0.009,0-0.019,0-0.027-0.001c-2.602-0.144-5.28-0.229-7.961-0.25c-0.276-0.002-0.498-0.228-0.496-0.504
				c0.002-0.275,0.226-0.496,0.5-0.496c0.001,0,0.003,0,0.004,0c2.696,0.022,5.391,0.106,8.008,0.252
				c0.276,0.015,0.487,0.251,0.472,0.527C355.227,165.061,355.007,165.267,354.743,165.267z"/>
		</g>
		<g>
			<path fill="#76CCBB" d="M345.601,407.803c-0.01,0-0.02,0-0.029-0.001c-1.333-0.078-2.666-0.166-3.998-0.264
				c-0.276-0.021-0.482-0.26-0.463-0.535c0.021-0.276,0.281-0.482,0.535-0.463c1.328,0.098,2.655,0.186,3.984,0.264
				c0.275,0.016,0.486,0.253,0.47,0.528C346.085,407.597,345.865,407.803,345.601,407.803z"/>
		</g>
	</g>
</g>
<path fill="#A1E5D8" d="M395.399,425.415c0,7.38-70.34,13.36-157.11,13.36c-2.16,0-4.3,0-6.44-0.02
	c-4.09,6.78-41.4,12.09-86.82,12.09c-48.16,0-87.2-5.97-87.2-13.33c0-3.74,10.06-7.11,26.27-9.53c-1.91-0.83-2.91-1.69-2.91-2.57
	c0-7.39,70.34-13.37,157.1-13.37C325.059,412.045,395.399,418.025,395.399,425.415z"/>
<g>
	<g>
		<path fill="#32B7A4" d="M350.733,223.872h-193.33h-1.52c-1.01,0-1.83-0.83-1.83-1.83c0-1.01,0.82-1.83,1.83-1.83h200.2
			c1.01,0,1.83,0.82,1.83,1.83c0,1-0.82,1.83-1.83,1.83H350.733z"/>
		<polygon fill="#1CA38C" points="356.083,220.212 155.883,220.212 179.103,205.182 340.743,205.182 		"/>
		<path fill="#32B7A4" d="M169.273,253.402h-12.39h-2.09c-1.01,0-1.83-0.82-1.83-1.83c0-1.01,0.82-1.83,1.83-1.83h2.39h195.88h1.93
			c1.01,0,1.84,0.82,1.84,1.83c0,1.01-0.83,1.83-1.84,1.83h-19.28H169.273z"/>
		<path fill="#FFFAE3" d="M353.063,249.742h-195.88c0.68-0.78,1.17-1.63,1.54-2.53l192.96-0.22
			C352.103,247.922,352.553,248.842,353.063,249.742z"/>
		<path fill="#E8DFBA" d="M351.683,246.992l-192.96,0.22c0.32-0.74,0.56-1.5,0.76-2.26l190.53-2.69
			C350.443,243.862,351.003,245.442,351.683,246.992z"/>
		<path fill="#E8DFBA" d="M157.403,223.872h193.33c-0.59,1.66-1.03,3.35-1.33,5.06l-190.68-1.88
			C158.343,225.982,157.903,224.922,157.403,223.872z"/>
		<path fill="#FFFAE3" d="M350.013,242.262l-190.53,2.69c0.63-2.34,0.96-4.73,1-7.12l188.84,1.2
			C349.493,240.122,349.723,241.192,350.013,242.262z"/>
		<path fill="#FFFAE3" d="M158.723,227.052l190.68,1.88c-0.24,1.34-0.38,2.69-0.43,4.04l-188.48,1.42l-0.14,0.01
			C160.123,231.922,159.573,229.462,158.723,227.052z"/>
		<path fill="#E8DFBA" d="M349.323,239.032l-188.84-1.2c0.03-1.14-0.01-2.29-0.13-3.43l0.14-0.01l188.48-1.42
			C348.883,234.992,349.003,237.022,349.323,239.032z"/>
	</g>
	<g>
		<path fill="#32B7A4" d="M258.003,307.222h92.43h3.28c0.89,0,1.62,0.73,1.62,1.62c0,0.89-0.73,1.62-1.62,1.62h-161.56h-27.43
			h-12.56c-0.89,0-1.61-0.73-1.61-1.62c0-0.89,0.72-1.62,1.61-1.62h2.62H258.003z"/>
		<path fill="#32B7A4" d="M353.423,284.912c0.89,0,1.62,0.72,1.62,1.61c0,0.89-0.73,1.62-1.62,1.62h-2.94
			c0.02-0.07,0.04-0.13,0.07-0.2l-10.25,0.2h-186.16h-2.26c-0.89,0-1.62-0.73-1.62-1.62c0-0.89,0.73-1.61,1.62-1.61h4.7h0.24h10.45
			h170.03h10.4h4.35H353.423z"/>
		<path fill="#E8DFBA" d="M340.303,288.142h10.18c-0.52,1.34-0.92,2.72-1.2,4.12l-193.9,3.42c-0.11-1.31-0.29-2.62-0.54-3.92
			L340.303,288.142z"/>
		<path fill="#E8DFBA" d="M350.433,307.222h-92.43l91.35-3.61C349.623,304.832,349.983,306.042,350.433,307.222z"/>
		<path fill="#FFFAE3" d="M349.353,303.612l-91.35,3.61h-103.22v-0.39c0.13-0.66,0.25-1.32,0.34-1.98l193.59-5.38h0.06
			C348.853,300.862,349.053,302.252,349.353,303.612z"/>
		<path fill="#FFFAE3" d="M155.383,295.682l193.9-3.42c-0.33,1.54-0.51,3.11-0.55,4.69h-0.02l-193.19,0.83
			C155.493,297.082,155.453,296.382,155.383,295.682z"/>
		<path fill="#E8DFBA" d="M348.773,299.472h-0.06l-193.59,5.38c0.35-2.34,0.48-4.71,0.4-7.07l193.19-0.83h0.02
			C348.703,297.792,348.713,298.632,348.773,299.472z"/>
		<path fill="#FFFAE3" d="M340.303,288.142l-185.46,3.62c-0.19-1.01-0.43-2.02-0.7-3.02v-0.6H340.303z"/>
	</g>
	<g>
		<path fill="#FCD660" d="M347.883,321.462c0.2,2.36,0.09,4.73-0.18,7.09c-0.17,1.46-0.4,2.92-0.65,4.37
			c-0.02,0.13,0.02,0.31,0.15,0.31v0.77h-34.47c3.27-7.22,3.01-15.96-0.69-22.98v-0.41h31.88v0.22
			C346.343,313.812,347.553,317.642,347.883,321.462z"/>
		<path fill="#DD366D" d="M312.043,311.022c3.7,7.02,3.96,15.76,0.69,22.98h-123.23c-0.97-3.13-1.3-6.44-0.96-9.7
			c0.21-1.97,0.65-3.9,1.15-5.81c0.7-2.65,1.5-5.28,2.41-7.88h119.94V311.022z"/>
		<path fill="#FCD660" d="M192.103,310.612c-0.91,2.6-1.71,5.23-2.41,7.88c-0.5,1.91-0.94,3.84-1.15,5.81
			c-0.34,3.26-0.01,6.57,0.96,9.7h-28.26v-0.4c-0.47-1.79-0.76-3.63-0.88-5.47c-0.4-6.15,1.12-12.42,4.36-17.67h27.43
			C192.133,310.512,192.123,310.562,192.103,310.612z"/>
	</g>
	<g>
		<path fill="#FC9D2B" d="M347.843,253.712c0.28,0,0.51,0.24,0.65,0.46c6.02,9.34,5.72,20.98-0.79,30.12v0.62h-10.4v-0.53
			c3.3-5.1,3.74-11.03,3.3-16.72c-0.38-4.93-1.44-9.98-4.81-14.15h12.05V253.712z"/>
		<path fill="#DD366D" d="M340.603,267.662c0.44,5.69,0,11.62-3.3,16.72v0.53h-170.03c-2.64-8.99-2.63-18.44,0.02-27.42
			c0.41-1.38,0.9-2.79,1.89-3.98h166.61C339.163,257.682,340.223,262.732,340.603,267.662z"/>
		<path fill="#FC9D2B" d="M156.793,253.512h12.39c-0.99,1.19-1.48,2.6-1.89,3.98c-2.65,8.98-2.66,18.43-0.02,27.42h-10.45h-0.24
			v-0.65c-1-1.07-1.45-2.37-1.83-3.65c-2.05-7.04-2.22-14.41-0.49-21.5C154.743,257.152,155.383,255.172,156.793,253.512z"/>
	</g>
	<g>
		<path fill="#32B7A4" d="M348.563,338.892h-193.33h-0.91c-1.34,0-2.44-1.1-2.44-2.44v-0.01c0-1.34,1.1-2.44,2.44-2.44h6.92h28.26
			h123.23h34.47h6.09c1.35,0,2.45,1.1,2.45,2.44v0.01c0,1.34-1.1,2.44-2.45,2.44H348.563z"/>
		<path fill="#32B7A4" d="M155.023,373.442h195.86h1.33c1.34,0,2.44,1.11,2.44,2.45c0,0.68-0.27,1.29-0.72,1.73
			c-0.44,0.45-1.05,0.72-1.72,0.72h-193.63h-5.34c-1.35,0-2.45-1.1-2.45-2.45c0-0.67,0.27-1.28,0.72-1.73
			c0.44-0.44,1.05-0.72,1.73-0.72H155.023z"/>
		<path fill="#269986" d="M347.203,333.232c-0.13,0-0.17-0.18-0.15-0.31c0.25-1.45,0.48-2.91,0.65-4.37l5.59,5.45h-6.09V333.232z"/>
		<path fill="#E8DFBA" d="M350.883,373.442h-195.86c0.67-1.04,1.16-2.19,1.53-3.38h0.01l192.94-0.29h0.01
			C349.923,371.012,350.373,372.232,350.883,373.442z"/>
		<path fill="#FFFAE3" d="M349.503,369.772l-192.94,0.29c0.31-0.99,0.55-2,0.75-3.01l190.53-3.59
			C348.263,365.602,348.823,367.712,349.503,369.772z"/>
		<path fill="#FFFAE3" d="M155.233,338.892h193.33c-0.59,2.22-1.03,4.48-1.33,6.76l-190.68-2.51
			C156.173,341.712,155.733,340.292,155.233,338.892z"/>
		<path fill="#E8DFBA" d="M347.843,363.462l-190.53,3.59c0.63-3.13,0.96-6.32,1-9.51l188.84,1.61
			C347.323,360.592,347.553,362.032,347.843,363.462z"/>
		<path fill="#E8DFBA" d="M156.553,343.142l190.68,2.51c-0.24,1.79-0.38,3.59-0.43,5.4l-188.48,1.9l-0.14,0.01
			C157.953,349.642,157.403,346.352,156.553,343.142z"/>
		<path fill="#FFFAE3" d="M347.153,359.152l-188.84-1.61c0.03-1.53-0.01-3.06-0.13-4.58l0.14-0.01l188.48-1.9
			C346.713,353.752,346.833,356.462,347.153,359.152z"/>
		<path fill="#269986" d="M161.243,333.602v0.4h-6.92l6.04-5.87C160.483,329.972,160.773,331.812,161.243,333.602z"/>
	</g>
	<g>
		<path fill="#DD366D" d="M359.363,379.792c6.76,13.45,6.41,30.23-0.89,43.39v0.15h-11.66v-0.03c3.71-7.34,4.19-15.88,3.7-24.08
			c-0.43-7.09-1.61-14.38-5.39-20.38h12.99l0.36,0.31C358.853,379.012,359.183,379.432,359.363,379.792z"/>
		<path fill="#C41A58" d="M345.123,378.842h-186.88c0.1-0.17,0.22-0.34,0.34-0.5h193.63c0.67,0,1.28-0.27,1.72-0.72
			c0.45-0.44,0.72-1.05,0.72-1.73l3.46,2.95H345.123z"/>
		<path fill="#FCD660" d="M350.513,399.222c0.49,8.2,0.01,16.74-3.7,24.08v0.03h-190.88c-2.8-12.72-2.73-26.05,0.19-38.75
			c0.45-1.99,1.01-4.03,2.12-5.74h186.88C348.903,384.842,350.083,392.132,350.513,399.222z"/>
		<path fill="#C41A58" d="M158.583,378.342c-0.12,0.16-0.24,0.33-0.34,0.5h-13.91c0.07-0.1,0.14-0.21,0.21-0.31l6.25-2.64
			c0,1.35,1.1,2.45,2.45,2.45H158.583z"/>
		<path fill="#DD366D" d="M144.333,378.842h13.91c-1.11,1.71-1.67,3.75-2.12,5.74c-2.92,12.7-2.99,26.03-0.19,38.75h-11.61
			l-0.22-0.2c-1.12-1.54-1.63-3.41-2.05-5.26c-2.31-10.14-2.5-20.75-0.56-30.96C142.033,384.082,142.763,381.232,144.333,378.842z"
			/>
	</g>
	<path d="M144.333,378.842l219.868,21.312c0,0-0.188-15.912-6.088-21.312H144.333z"/>
	<path d="M343.923,310.612l-183.623,15.986c0,0-0.101-9.348,4.423-16.136L343.923,310.612z"/>
	<path d="M156.793,253.512c0,0-3.818,3.264-3.604,17.882l199.283-6.923c0,0-1.18-7.189-4.63-10.959H156.793z"/>
</g>
<g>
	<g>
		<path fill="#168E77" d="M187.735,398.281c-2.962-0.311-5.923,0.808-8.388,2.485c-2.496,1.677-4.577,3.883-6.7,6.006
			c-5.809,5.809-12.157,11.142-19.25,15.284c-1.429,0.828-2.879,1.615-4.359,2.351c-4.463-1.47-8.657-3.521-12.726-5.871
			c-7.714-4.463-14.953-9.992-22.574-14.663c-2.33-1.439-4.846-2.827-7.58-2.941l-0.217,0.124c-0.104-0.176-0.197-0.362-0.3-0.538
			l0.072-0.414l29.408,5.229l0.124-1.967c6.917,1.025,14.01-0.207,20.855-1.74c5.861-1.305,11.701-2.848,17.21-5.24
			c2.03-0.87,4.018-1.874,5.695-3.303C189.765,395.827,187.735,398.281,187.735,398.281z"/>
		<path fill="#32B7A4" d="M208.041,410.437c-0.238,2.879-1.015,5.706-2.268,8.305c-0.642,1.315-1.408,2.578-2.288,3.748
			c-2.796,3.749-6.648,6.555-10.614,9.03c-1.367,0.849-2.744,1.657-4.152,2.433c-0.021-0.01-0.052-0.021-0.072-0.021
			c0,0.021,0.01,0.041,0.021,0.052c-2.972,1.646-6.037,3.127-9.174,4.453c-5.198,2.195-10.593,3.935-16.092,5.219
			c-15.284,3.572-31.417,3.572-46.639-0.28c0.01-0.093,0.01-0.186,0-0.28c0.041-2.827-0.072-5.654-0.362-8.481
			c-0.021-0.269-0.041-0.538-0.072-0.808l0.445-0.062c3.148,0.456,6.316-0.124,9.402-0.953c0.683-0.176,1.367-0.373,2.04-0.569
			c7.135-2.061,14.207-4.494,20.824-7.818c1.481-0.735,2.93-1.522,4.359-2.351c7.093-4.142,13.441-9.475,19.25-15.284
			c2.123-2.123,4.204-4.328,6.7-6.006c2.464-1.677,5.426-2.796,8.388-2.485c0,0,2.03-2.454-8.729-5.198
			c4.567-1.885,9.64-2.723,14.497-1.812c4.991,0.942,9.703,3.852,12.271,8.232C207.689,402.764,208.341,406.668,208.041,410.437z"/>
		<path fill="#FCD660" d="M88.905,443.909c0.083,0.124,0.967,1.214,1.112,1.265l-0.967-0.292c-1.947-0.652-3.831-1.905-4.453-3.842
			c-0.538-1.719,0.021-3.572,0.725-5.229c1.16-2.672,2.858-5.281,5.478-6.544c1.667-0.797,3.552-0.984,5.416-0.87
			c0.331,0.031,0.652,0.052,0.984,0.093c0.207,0.021,0.414,0.052,0.611,0.093c-0.632,0.083-1.263,0.321-1.843,0.59
			c-1.947,0.901-3.645,2.278-5.064,3.893c-1.305,1.481-2.392,3.21-2.858,5.136C87.579,440.129,87.797,442.262,88.905,443.909z"/>
		<path fill="#FFFFFF" d="M90.017,445.174c-0.145-0.052-1.029-1.141-1.112-1.265c-1.108-1.646-1.325-3.78-0.859-5.706
			c0.466-1.926,1.553-3.655,2.858-5.136c1.419-1.615,3.117-2.993,5.064-3.893c0.58-0.269,1.212-0.507,1.843-0.59
			c0.259,0.031,0.518,0.072,0.777,0.124c2.423,2.278,3.521,5.83,3.013,9.123c-0.497,3.127-2.361,5.944-4.908,7.808
			c-2.475,0.166-4.929,0.083-7.311-0.642c-0.114-0.031-0.217-0.072-0.331-0.114L90.017,445.174z"/>
		<path fill="#32B7A4" d="M116.397,434.62h-0.01c-3.272-0.166-6.285-1.729-9.268-3.075c-2.744-1.222-5.581-2.309-8.532-2.837
			c-0.062-0.062-0.114-0.114-0.176-0.166c-0.197,0-0.393,0.01-0.601,0.041c-0.197-0.041-0.404-0.073-0.611-0.093
			c-0.331-0.041-0.652-0.062-0.984-0.093l0.021-0.259c-3.262-0.217-6.213-2.143-8.584-4.401c-5.012-4.763-8.356-11.887-6.772-18.608
			c0.901-3.8,3.355-7.207,6.669-9.257c3.148-1.957,7.062-2.661,10.686-1.947l0.57,2.661c0.766,2.703,5.385,3.251,5.385,3.251
			l1.522,0.269l-0.072,0.414c0.104,0.176,0.197,0.362,0.3,0.538c1.833,3.334,3.655,6.71,4.753,10.355
			c0.953,3.127,1.367,6.42,2.568,9.464c2.185,5.571,7.083,10.013,12.84,11.649l0.072,0.269c-3.086,0.828-6.254,1.408-9.402,0.953
			l-0.445,0.062C116.356,434.082,116.376,434.351,116.397,434.62z"/>
		<path fill="#FCD660" d="M197.134,439.466c0.311,1.988-1.108,3.831-2.682,5.064c-2.899,2.247-6.513,3.293-10.2,3.635l-0.01-0.114
			c2.475-0.166,4.836-1.626,6.078-3.769c1.346-2.32,1.325-5.374-0.041-7.683c-0.518-0.88-1.222-1.667-1.615-2.609
			c0.021-0.01,0.041-0.021,0.052-0.031c1.336,0.321,2.641,0.735,3.914,1.243C194.649,435.997,196.803,437.323,197.134,439.466z"/>
		<path fill="#FFFFFF" d="M184.243,448.051l0.01,0.114c-1.263,0.114-2.537,0.155-3.8,0.124c-1.139-0.021-2.268-0.093-3.396-0.207
			c-0.124-0.238-0.228-0.497-0.311-0.746c-0.994-3.148,0.145-6.865,2.744-8.895c3.138-1.325,6.203-2.806,9.174-4.453
			c0.393,0.942,1.098,1.729,1.615,2.609c1.367,2.309,1.388,5.364,0.041,7.683C189.078,446.425,186.717,447.885,184.243,448.051z"/>
		<path fill="#E8701F" d="M176.746,447.336c0.083,0.249,0.186,0.507,0.311,0.746c-4.66-0.497-9.247-1.75-13.492-3.717l-0.166-0.704
			c5.498-1.284,10.893-3.024,16.092-5.219C176.891,440.471,175.752,444.188,176.746,447.336z"/>
		<path fill="#20A08B" d="M149.039,424.406c-6.617,3.324-13.689,5.757-20.824,7.818c-0.673,0.197-1.356,0.393-2.04,0.569
			l-0.072-0.269c-5.757-1.636-10.655-6.078-12.84-11.649c-1.201-3.044-1.615-6.337-2.568-9.464
			c-1.098-3.645-2.92-7.021-4.753-10.355l0.217-0.124c2.734,0.114,5.25,1.501,7.58,2.941c7.621,4.67,14.859,10.2,22.574,14.663
			C140.382,420.885,144.576,422.936,149.039,424.406z"/>
		<path fill="#E8701F" d="M116.397,434.62c0.29,2.827,0.404,5.654,0.362,8.481c-3.769,1.388-7.932,1.284-11.96,1.657
			c-2.692,0.249-5.405,0.714-8.108,0.88c2.547-1.864,4.411-4.68,4.908-7.808c0.507-3.293-0.59-6.845-3.013-9.123
			c2.951,0.528,5.788,1.615,8.532,2.837c2.982,1.346,5.995,2.91,9.268,3.075H116.397z"/>
		<path fill="#FFFFFF" d="M106.774,433.874c-0.199,0.673-0.494,1.335-0.842,1.986c-0.644-1.364-1.472-2.654-2.483-3.851
			c-0.43-0.51-1.16,0.226-0.732,0.732c1.095,1.297,1.944,2.715,2.569,4.219c-1.181,1.834-2.743,3.542-4.069,5.015
			c-0.445,0.494,0.285,1.229,0.732,0.732c1.24-1.377,2.626-2.91,3.776-4.558c0.503,1.554,0.78,3.188,0.796,4.888
			c0.006,0.666,1.042,0.668,1.035,0c-0.02-2.098-0.402-4.105-1.119-5.986c0.565-0.937,1.04-1.903,1.335-2.901
			C107.961,433.508,106.962,433.235,106.774,433.874z"/>
		<path fill="#FFFFFF" d="M112.148,437.868c2.577-2.005,8.195-6.771,5.166-8.962c-3.271-2.365-6.157,6.226-6.818,8.804
			c-1.013,0.812-1.209,2.375-1.339,3.595c-0.172,1.622,0.154,3.098,1.189,4.366c0.422,0.517,1.15-0.22,0.732-0.732
			c-0.843-1.033-1.021-2.273-0.879-3.564c0.057-0.516,0.13-1.368,0.366-2.028c1.23,2.124,5.178,8.627,6.927,6.027
			c0.797-1.185-0.538-3.871-1.205-4.804C115.244,439.114,113.794,438.279,112.148,437.868z M112.888,433.807
			c0.32-0.683,0.686-1.354,1.099-1.986c0.65-0.992,0.834-1.734,2-1.044c1.187,0.703,0.536,1.166-0.148,2.156
			c-0.44,0.636-0.956,1.205-1.506,1.747c-0.796,0.785-1.669,1.484-2.554,2.167C112.069,435.81,112.424,434.798,112.888,433.807z
			 M115.532,444.284c-1.78-1.116-3.062-3.633-4.12-5.53c1.863,0.343,3.477,1.311,4.422,3.038
			C116.344,442.724,117.505,445.521,115.532,444.284z"/>
		<path fill="#FFFFFF" d="M173.633,445.934c-0.585-1.48-0.998-2.997-1.245-4.569c-0.103-0.656-1.101-0.378-0.999,0.275
			c0.247,1.572,0.66,3.089,1.245,4.569C172.877,446.822,173.879,446.555,173.633,445.934z"/>
		<path fill="#168E77" d="M151.724,421.825c-5.297,3.202-11.35,4.96-17.161,6.989c-5.671,1.98-11.373,4.302-17.436,4.624
			c-0.663,0.035-0.667,1.071,0,1.035c6.165-0.328,11.943-2.647,17.711-4.661c5.895-2.058,12.033-3.843,17.409-7.093
			C152.817,422.375,152.297,421.479,151.724,421.825z"/>
	</g>
	<g>
		<path fill="#FFFFFF" d="M92.094,358.698l-4.473-22.895l0.549-0.466c1.377,1.615,2.537,3.417,3.438,5.343
			c2.413,5.053,3.138,10.924,1.916,16.392c-0.072,0.342-0.155,0.694-0.249,1.035l0.052,0.093c-0.259,0.145-0.507,0.29-0.756,0.445
			L92.094,358.698z"/>
		<path fill="#DD366D" d="M173.37,338.433c6.047,6.658,9.682,15.532,9.661,24.52c-0.01,5.623-1.491,11.235-4.214,16.143
			c-0.362,0.642-0.735,1.263-1.149,1.885c-1.419,2.206-3.106,4.235-5.053,6.016c-5.436,4.97-12.55,7.87-19.83,8.988
			c-5.654,0.88-11.411,0.725-17.096-0.021l0.797-13.068c5.892,0.28,11.867-0.994,17.055-3.811c1.936-1.056,3.811-2.351,5.001-4.204
			c1.16-1.802,1.574-3.987,1.76-6.13c0.393-4.473-0.114-9.029-1.481-13.316c-1.18-3.728-3.024-7.29-3.604-11.163
			c-0.362-2.475-0.062-5.188,1.067-7.362c0.642-1.243,1.553-2.309,2.775-3.044c2.33-1.408,5.343-1.336,7.859-0.311
			C169.445,334.571,171.547,336.425,173.37,338.433z"/>
		<path fill="#FC6D96" d="M178.837,393.159c0.052-0.031,0.104-0.052,0.166-0.072c-1.678,1.429-3.666,2.433-5.695,3.303
			c-5.509,2.392-11.349,3.935-17.21,5.24c-6.845,1.533-13.938,2.765-20.855,1.74l0.445-7.404c5.685,0.746,11.442,0.901,17.096,0.021
			c7.28-1.118,14.393-4.018,19.83-8.988c1.947-1.781,3.635-3.811,5.053-6.016l0.29,0.186c0.797,3.904,1.087,7.911,0.839,11.877
			L178.837,393.159z"/>
		<path fill="#FC6D96" d="M138.153,355.436l0.104-1.667l-3.479,0.373c-0.766-0.269-1.543-0.518-2.32-0.735l0.031-0.104
			c2.775-0.735,5.385-2.071,7.611-3.873c-3.448-0.891-6.958-1.398-10.49-1.553c3.365-5.561,7.725-10.531,12.788-14.611l-0.062-0.652
			c0.176-0.021,0.362-0.041,0.538-0.052l0.714,0.083c-0.021,0.135-0.041,0.269-0.052,0.404c-0.186,1.564-0.373,3.158-0.093,4.712
			c0.28,1.543,1.108,3.075,2.485,3.831c1.75,0.953,3.945,0.476,5.674-0.497c1.812-1.015,3.324-2.558,4.318-4.37l0.362,0.186
			c-1.129,2.175-1.429,4.888-1.067,7.362c0.58,3.873,2.423,7.435,3.604,11.163c1.367,4.287,1.874,8.843,1.481,13.316
			c-0.186,2.143-0.601,4.328-1.76,6.13c-1.191,1.854-3.065,3.148-5.001,4.204c-5.188,2.817-11.163,4.09-17.055,3.811
			L138.153,355.436z"/>
		<path fill="#DD366D" d="M142.336,332.614l0.062,0.652c-5.064,4.08-9.423,9.05-12.788,14.611
			c-12.188-0.57-24.593,2.962-35.393,8.864c0.528-0.994,0.984-2.019,1.377-3.075l1.419,0.104
			c6.658-5.374,13.71-10.314,21.373-14.114C125.872,335.938,133.99,333.318,142.336,332.614z"/>
		<path fill="#FCD660" d="M121.947,378.745c-0.197,0.362-0.373,0.735-0.549,1.098c-0.104-3.044-1.325-6.027-3.396-8.263
			c-0.124-0.124-0.259-0.259-0.425-0.311c-0.518-0.135-0.839,0.538-0.922,1.056c-0.238,1.564-0.207,3.158,0.114,4.701
			c-2.444-2.692-5.519-4.794-8.905-6.109c-1.885-0.735-4.194-1.16-5.778,0.083c-1.149,0.911-1.584,2.475-1.584,3.945
			c0,0.673,0.072,1.336,0.217,1.978l-1.688,0.383l-4.328-18.887l40.074-4.277l3.479-0.373l-1.771,29.128
			c-5.064-0.228-10.065-1.605-14.466-4.111L121.947,378.745z"/>
		<path fill="#DD366D" d="M121.399,379.843c0.176-0.362,0.352-0.735,0.549-1.098l0.072,0.041c4.401,2.506,9.402,3.883,14.466,4.111
			l-0.797,13.068c-1.636-0.207-3.262-0.466-4.877-0.766c-4.183-0.766-8.45-1.854-11.836-4.422l-0.176-0.104
			c0.031-0.683,0.083-1.357,0.155-2.03C119.286,385.61,120.115,382.628,121.399,379.843z"/>
		<path fill="#FCD660" d="M135.243,403.369l-0.124,1.967l-29.408-5.229l-1.522-0.269l-5.157-22.532l1.688-0.383
			c0.414,1.947,1.419,3.78,2.754,5.271c1.781,1.988,4.121,3.417,6.586,4.442c2.827,1.17,5.851,1.854,8.895,2.009
			c-0.072,0.673-0.124,1.346-0.155,2.03l0.176,0.104c3.386,2.568,7.652,3.655,11.836,4.422c1.615,0.3,3.241,0.559,4.877,0.766
			L135.243,403.369z"/>
		<path fill="#FFFFFF" d="M134.777,354.142l-40.074,4.277l-2.133,0.228c0.249-0.155,0.497-0.3,0.756-0.445
			c11.67-6.814,26.167-8.501,39.131-4.794C133.234,353.624,134.011,353.873,134.777,354.142z"/>
		<path fill="#FFFAE3" d="M129.61,347.877c3.531,0.155,7.041,0.663,10.49,1.553c-2.226,1.802-4.836,3.138-7.611,3.873l-0.031,0.104
			c-12.964-3.707-27.461-2.019-39.131,4.794l-0.052-0.093c0.093-0.342,0.176-0.694,0.249-1.035l0.072,0.01
			c0.207-0.114,0.414-0.228,0.621-0.342C105.017,350.839,117.422,347.308,129.61,347.877z"/>
		<path fill="#FFDAB6" d="M116.77,377.026c-0.321-1.543-0.352-3.138-0.114-4.701c0.083-0.518,0.404-1.191,0.922-1.056
			c0.166,0.052,0.3,0.186,0.425,0.311c2.071,2.237,3.293,5.219,3.396,8.263c-1.284,2.785-2.112,5.768-2.444,8.802
			c-3.044-0.155-6.068-0.839-8.895-2.009c-2.464-1.025-4.805-2.454-6.586-4.442c-1.336-1.491-2.34-3.324-2.754-5.271
			c-0.145-0.642-0.217-1.305-0.217-1.978c0-1.47,0.435-3.034,1.584-3.945c1.584-1.243,3.893-0.818,5.778-0.083
			C111.251,372.232,114.326,374.334,116.77,377.026z"/>
		<path fill="#EDBD35" d="M98.235,393.925l-4.142-19.364l-3.738-17.521h-0.01l-4.297-20.12l1.574-1.118l4.473,22.895l0.476-0.052
			l2.133-0.228l4.328,18.887l5.157,22.532c0,0-4.618-0.549-5.385-3.251L98.235,393.925z"/>
		<path fill="#FFFAE3" d="M96.567,336.777c1.408,5.55,1.035,11.535-0.973,16.889c-0.393,1.056-0.849,2.081-1.377,3.075
			c-0.207,0.114-0.414,0.228-0.621,0.342l-0.072-0.01c1.222-5.467,0.497-11.339-1.916-16.392l0.083-0.041
			c0.57-2.433,1.263-4.836,2.092-7.197c0.093-0.269,0.238-0.58,0.518-0.621c0.249-0.041,0.476,0.155,0.642,0.352
			C95.801,334.188,96.236,335.493,96.567,336.777z"/>
		<path fill="#FFDAB6" d="M90.355,357.041l3.738,17.521c-1.698-0.217-3.055-1.812-3.873-3.396
			c-2.195-4.266-2.433-9.506-0.621-13.958l0.746-0.166H90.355z"/>
	</g>
	<g>
		<path fill="#F4C49D" d="M180.774,304.594c-0.259,4.97-1.232,10.251-4.763,13.72c-0.3,0.3-0.621,0.58-0.953,0.839
			c-1.512,1.222-3.283,2.112-5.064,2.92c-4.359,1.967-8.916,3.479-13.575,4.525c-3.5,0.808-7.052,1.336-10.635,1.605
			c1.129-0.3,2.226-0.932,3.231-1.574c9.174-5.944,16.847-14.714,19.85-25.235c1.118-3.904,1.574-7.994,1.356-12.053
			c0.901,0.197,1.822,0.321,2.734,0.311c0.818-2.268,2.154-4.39,4.132-5.737c2.216-1.522,5.322-1.895,7.59-0.466
			c1.253,0.797,2.164,2.071,2.703,3.448c1.253,3.189,0.621,6.814-0.497,10.055C185.785,300.141,183.932,303.423,180.774,304.594z"/>
		<path fill="#FFDAB6" d="M168.866,301.394c-3.003,10.521-10.676,19.291-19.85,25.235c-1.004,0.642-2.102,1.274-3.231,1.574
			c-0.746,0.062-1.501,0.104-2.257,0.135c-5.126,0.228-10.272-0.083-15.325-0.963c-5.654-0.973-11.442-2.775-15.501-6.824
			c-4.981-4.95-6.513-12.322-7.538-19.27c-0.642-4.339-1.17-8.729-1.098-13.099c0.01-0.953,0.052-1.905,0.145-2.858h0.052
			c3.272-12.488,11.018-23.764,21.476-31.334c0.849,2.485,2.423,4.67,4.049,6.731c9.433,11.877,21.921,21.3,35.921,27.109
			c1.46,0.611,2.972,1.18,4.515,1.512C170.439,293.4,169.984,297.49,168.866,301.394z"/>
		<path fill="#E8AD80" d="M156.595,327.385c0.932,2.475,0.953,5.291,0.041,7.777c-0.197,0.538-0.435,1.056-0.714,1.564
			c-0.994,1.812-2.506,3.355-4.318,4.37c-1.729,0.973-3.925,1.45-5.674,0.497c-1.377-0.756-2.206-2.288-2.485-3.831
			c-0.28-1.553-0.093-3.148,0.093-4.712c0.01-0.135,0.031-0.269,0.052-0.404c0.145-1.325,0.311-2.651,0.466-3.987l0.01-0.259
			c0.58,0.052,1.149-0.031,1.719-0.197c3.583-0.269,7.135-0.797,10.635-1.605L156.595,327.385z"/>
		<path fill="#EFB484" d="M145.784,328.203c-0.57,0.166-1.139,0.249-1.719,0.197c-0.186,0-0.362-0.021-0.538-0.062
			C144.283,328.306,145.039,328.265,145.784,328.203z"/>
		<path fill="#DD9864" d="M128.889,302.485c0.217-1.895-0.538-3.79-0.694-5.716c-0.041-0.487-0.041-0.984,0.135-1.439
			c0.166-0.456,0.538-0.87,1.015-0.973c0.393-0.083,0.808,0.052,1.17,0.228c1.315,0.673,2.133,2.019,2.765,3.345
			c0.746,1.564,1.336,3.22,1.47,4.939c0.135,1.729-0.217,3.531-1.222,4.939c-0.787,1.108-1.926,1.916-3.117,2.578
			c-0.87,0.476-1.802,0.891-2.785,1.056c-1.263,0.207-2.558-0.01-3.8-0.321c-1.098-0.269-2.195-0.621-3.075-1.325
			c-0.859-0.694-1.45-1.978-0.818-2.879c0.186-0.259,0.456-0.456,0.735-0.621c1.356-0.828,2.951-1.139,4.473-1.595
			C126.559,304.276,128.009,303.634,128.889,302.485z"/>
		<path fill="#E8AD80" d="M116.792,305.14c-0.956-2.932-4.221-4.817-7.231-4.226c-2.846,0.559-5.355,3.221-5.428,6.16
			c-0.196,1.265-0.018,2.595,0.643,3.864c1.527,2.929,5.2,4.284,8.219,2.835C116.071,312.296,117.86,308.416,116.792,305.14z"/>
		<path fill="#E8AD80" d="M159.509,302.306c-0.956-2.932-4.221-4.817-7.231-4.226c-2.846,0.559-5.355,3.221-5.428,6.16
			c-0.196,1.265-0.018,2.595,0.643,3.864c1.527,2.929,5.2,4.284,8.219,2.835C158.788,309.462,160.577,305.582,159.509,302.306z"/>
		<path fill="#DD9864" d="M184.063,292.384c-1.398-3.007-3.47-0.46-3.954,1.677c-0.147,0.649,0.851,0.926,0.999,0.275
			c0.16-0.492,0.32-0.983,0.48-1.474c0.588,0.178,1.176,0.356,1.765,0.534c0.437,0.556,0.211,2.265,0.063,2.894
			c-0.15,0.638-0.574,1.842-1.168,2.213c-1.009,0.106-2.019,0.212-3.028,0.317c-0.775-0.408-1.285-1.006-1.529-1.792
			c-1.176-2.604-0.206-8.124,2.419-9.713c0.569-0.345,0.05-1.24-0.523-0.894c-2.706,1.638-3.803,6.485-3.338,9.434
			c0.391,2.482,2.632,5.137,5.411,4.195C184.565,299.065,185.204,294.838,184.063,292.384z"/>
		<path fill="#3A3A51" d="M132.653,315.786c0.007,0.907-0.217,5.805-1.763,5.346c-0.708-0.21-1.494-1.618-1.869-2.202
			c-0.438-0.681-0.799-1.399-1.118-2.142c-0.262-0.611-1.154-0.084-0.894,0.523c0.524,1.223,1.189,2.353,2.024,3.391
			c0.557,0.692,1.372,1.73,2.39,1.592c1.008-0.137,1.334-1.241,1.607-2.07c0.473-1.436,0.669-2.929,0.658-4.437
			C133.683,315.12,132.648,315.119,132.653,315.786z"/>
		<path fill="#3A3A51" d="M148.343,286.982c-0.862,0.264-1.732,0.401-2.633,0.418c-0.149,0.003-0.257,0.061-0.337,0.143
			c-0.24,0.029-0.464,0.197-0.458,0.509c0.036,1.69,0.247,10.925-3.958,8.144c-2.249-1.487-2.296-5.471-2.317-7.825
			c-0.006-0.666-1.041-0.63-1.035,0.038c0.026,2.917,0.566,9.2,4.599,9.551c3.963,0.345,3.823-6.764,3.755-9.544
			c0.912-0.036,1.811-0.176,2.686-0.444C149.282,287.777,148.982,286.786,148.343,286.982z"/>
		<path fill="#3A3A51" d="M119.717,289.729c0.041-0.12,0.03-0.258-0.072-0.399c-0.013-0.018-0.026-0.035-0.039-0.053
			c-0.347-0.478-1.054-0.193-0.946,0.399c0.275,1.519,0.55,3.049,0.566,4.598c0.007,0.651-0.042,1.285-0.152,1.927
			c-0.049,0.419-0.142,0.829-0.279,1.228c-0.045,0.901-0.488,1.236-1.33,1.007c-3.275,0.19-4.083-5.362-4.431-7.978
			c0.16-0.295-0.074-0.777-0.503-0.786c-0.117-0.024-0.235-0.017-0.336,0.027c-0.918,0.132-1.839,0.233-2.765,0.299
			c-0.661,0.047-0.666,1.083,0,1.035c0.873-0.062,1.742-0.161,2.609-0.278c0.288,2.129,0.644,4.297,1.746,6.172
			c0.736,1.251,2.238,3.141,3.897,3.024c1.679-0.119,2.191-2.196,2.422-3.54C120.486,294.191,120.113,291.924,119.717,289.729z"/>
	</g>
	<g>
		<path fill="#FF8C3E" d="M125.737,253.989c-10.458,7.569-18.204,18.846-21.476,31.334h-0.052c-0.093,0.953-0.135,1.905-0.145,2.858
			l0,0c-1.191-6.172-2.351-12.478-2.102-18.753c0.186-4.815,0.859-9.775,3.345-13.886c3.272-5.405,9.216-8.605,15.139-10.79
			c11.701-4.308,24.375-5.643,36.812-4.846c5.861,0.373,11.825,1.253,17.034,3.956c9.319,4.836,14.952,14.88,17.386,25.09
			c2.423,10.21,2.175,20.834,2.754,31.324c0.58,10.479,2.133,21.269,7.683,30.185c3.024,4.856,7.103,8.947,10.541,13.513
			c4.794,6.358,8.408,14.414,6.555,22.16c-1.771,7.393-8.398,12.995-15.739,14.994c-1.76,0.476-3.552,0.777-5.354,0.911
			c0.642-0.549,1.232-1.191,1.76-1.843c5.726-7.114,6.896-17.603,2.858-25.804c-2.257-4.587-5.913-8.346-9.734-11.753
			c-3.821-3.396-7.89-6.565-11.287-10.386c-3.314-3.707-6.006-8.18-6.658-13.099c0.331-0.259,0.652-0.538,0.953-0.839
			c3.531-3.469,4.504-8.75,4.763-13.72c3.158-1.17,5.012-4.453,6.109-7.642c1.118-3.241,1.75-6.865,0.497-10.055
			c-0.538-1.377-1.45-2.651-2.703-3.448c-2.268-1.429-5.374-1.056-7.59,0.466c-1.978,1.346-3.314,3.469-4.132,5.737
			c-0.911,0.01-1.833-0.114-2.734-0.311c-1.543-0.331-3.055-0.901-4.515-1.512c-14-5.809-26.488-15.232-35.921-27.109
			C128.16,258.659,126.586,256.474,125.737,253.989z"/>
		<path fill="#E8701F" d="M202.736,354.39c4.038,8.201,2.868,18.691-2.858,25.804c-0.528,0.652-1.118,1.294-1.76,1.843
			c-5.726,0.456-11.598-0.663-17.055-2.547l-2.247-0.393c2.723-4.908,4.204-10.521,4.214-16.143
			c0.021-8.988-3.614-17.862-9.661-24.52c-1.822-2.009-3.925-3.862-6.451-4.877c-2.516-1.025-5.53-1.098-7.859,0.311
			c-1.222,0.735-2.133,1.802-2.775,3.044l-0.362-0.186c0.28-0.507,0.518-1.025,0.714-1.564c0.911-2.485,0.891-5.302-0.041-7.777
			l-0.176-0.787c4.66-1.046,9.216-2.558,13.575-4.525c1.781-0.808,3.552-1.698,5.064-2.92c0.652,4.919,3.345,9.392,6.658,13.099
			c3.396,3.821,7.466,6.99,11.287,10.386C196.824,346.044,200.479,349.803,202.736,354.39z"/>
		<path fill="#E8701F" d="M176.395,283.676c-5.148-1.433-9.703-4.114-14.165-6.981c-4.7-3.02-9.458-6.036-13.722-9.66
			c-7.921-6.731-13.501-15.607-17.938-24.906c-0.287-0.601-1.18-0.076-0.894,0.523c4.615,9.671,10.478,18.849,18.826,25.722
			c4.146,3.414,8.694,6.316,13.207,9.216c4.538,2.916,9.183,5.629,14.413,7.086C176.763,284.853,177.037,283.855,176.395,283.676z"
			/>
		<path fill="#E8701F" d="M182.354,281.775c-3.819-2.097-6.949-5.821-9.867-9.006c-3.062-3.343-5.937-6.856-8.607-10.52
			c-5.136-7.05-9.48-14.632-13.034-22.596c-0.271-0.607-1.164-0.081-0.894,0.523c3.795,8.503,8.495,16.571,14.088,24.02
			c2.598,3.46,5.37,6.787,8.316,9.957c2.833,3.048,5.786,6.492,9.476,8.517C182.416,282.99,182.939,282.096,182.354,281.775z"/>
		<path fill="#E8701F" d="M192.56,276.562c-13.913-8.667-24.667-21.758-30.444-37.101c-0.233-0.618-1.234-0.35-0.999,0.275
			c5.876,15.604,16.766,28.903,30.92,37.72C192.605,277.81,193.125,276.914,192.56,276.562z"/>
		<path fill="#E8701F" d="M122.607,243.64c-5.638,5.278-9.446,12.221-13.081,18.95c-3.612,6.688-6.601,13.713-7.201,21.367
			c-0.052,0.664,0.984,0.661,1.035,0c0.61-7.778,3.793-14.893,7.502-21.657c3.498-6.378,7.117-12.91,12.477-17.929
			C123.826,243.916,123.093,243.185,122.607,243.64z"/>
		<path fill="#E8701F" d="M114.692,247.176c-5.994,6.155-10.557,13.408-13.525,21.47c-0.231,0.626,0.77,0.896,0.999,0.275
			c2.906-7.891,7.392-14.989,13.259-21.013C115.89,247.43,115.158,246.697,114.692,247.176z"/>
		<path fill="#FF8C3E" d="M169.955,288.549c-10.269-0.501-20.264-4.108-28.315-10.547c-3.638-2.909-6.857-6.35-9.523-10.169
			c-2.786-3.992-6.048-9.176-6.343-14.132c-0.039-0.662-1.075-0.667-1.035,0c0.286,4.792,3.191,9.705,5.783,13.626
			c2.847,4.306,6.357,8.179,10.386,11.407c8.27,6.626,18.487,10.336,29.047,10.851C170.621,289.617,170.62,288.581,169.955,288.549z
			"/>
		<path fill="#FF8C3E" d="M201.677,332.882c-5.27-8.296-3.511-18.207-2.855-27.445c0.635-8.938,0.386-17.986-1.345-26.796
			c-2.982-15.182-11.058-32.153-27.249-36.489c-0.644-0.173-0.919,0.826-0.275,0.999c17.584,4.708,25.183,24.445,27.345,40.776
			c1.163,8.783,0.844,17.564,0.082,26.362c-0.684,7.903-1.019,16.153,3.404,23.115C201.139,333.966,202.035,333.447,201.677,332.882
			z"/>
		<path fill="#FF8C3E" d="M222.699,362.405c-0.619-6.164-3.884-11.606-7.802-16.262c-4.465-5.306-11.483-9.848-12.908-17.034
			c-0.13-0.653-1.128-0.377-0.999,0.275c1.024,5.162,4.815,8.786,8.394,12.363c4.708,4.705,9.34,9.931,11.387,16.398
			c1.753,5.535,1.38,12.185-2.404,16.819c-4.77,5.841-12.855,6.26-19.809,5.999c-0.666-0.025-0.665,1.011,0,1.035
			c6.566,0.246,13.785-0.115,18.983-4.671C221.743,373.647,223.243,367.817,222.699,362.405z"/>
		<path fill="#FF8C3E" d="M128.47,239.211c-5.5-4.835-15.113-4.705-21.765-2.98c-0.645,0.167-0.371,1.166,0.275,0.999
			c6.249-1.621,15.566-1.85,20.758,2.713C128.236,240.381,128.971,239.652,128.47,239.211z"/>
		<path fill="#FF8C3E" d="M131.261,238.029c-0.89-2.883-2.925-5.053-5.007-7.149c-0.47-0.473-1.203,0.259-0.732,0.732
			c1.95,1.963,3.906,3.988,4.741,6.692C130.459,238.939,131.459,238.668,131.261,238.029z"/>
		<path fill="#FF8C3E" d="M124.007,240.862c-1.417-1.43-3.398-1.325-5.294-1.227c-2.791,0.144-5.508,0.717-8.156,1.601
			c-0.629,0.21-0.359,1.21,0.275,0.998c1.979-0.661,3.989-1.167,6.065-1.412c1.885-0.222,4.899-0.72,6.377,0.772
			C123.745,242.068,124.477,241.336,124.007,240.862z"/>
	</g>
</g>
<g>
	<ellipse fill="#127065" cx="218.17" cy="214.076" rx="30.256" ry="3.972"/>
	<g>
		<path fill="#DD3371" d="M219.73,154.354c2.99,5.28,3.34,11.85,1.54,17.65c-1.83,5.87-5.7,10.97-10.43,14.9
			c-3.68,3.05-7.94,5.47-12.57,6.67c-4.56,1.18-9.5,1.14-13.93-0.49c-2.27-1.82-4.22-3.94-5.55-6.53c-2.3-4.52-2.31-9.92-1.15-14.86
			c1.8-7.71,6.47-14.83,13.18-19.03c3.41-2.13,7.34-3.45,11.34-3.83c3.87-0.37,7.81,0.15,11.4,1.67c1.87,0.78,3.72,1.93,4.77,3.61
			c0.2,0.3,0.36,0.61,0.49,0.94l0.23,0.04c0.28-0.71,0.63-1.39,1.03-2.03C219.96,153.494,219.84,153.924,219.73,154.354z"/>
		<path fill="#136D62" d="M228.81,123.314c-0.31,0.99-0.63,1.97-0.93,2.96c-2.78,8.88-5.39,17.81-7.8,26.79
			c-0.4,0.64-0.75,1.32-1.03,2.03l-0.23-0.04c-0.13-0.33-0.29-0.64-0.49-0.94l0.27-0.17c-1.29-4.41-2.43-8.87-3.41-13.36
			c-0.12-0.57-0.25-1.15-0.36-1.72v-0.01c-0.77-3.71-1.35-7.46-1.27-11.24c0.01-0.67,0.06-1.37,0.43-1.92
			c0.02-0.03,0.04-0.05,0.07-0.08l0.03,0.02c-0.08,0.74,0.34,1.46,0.9,1.96c0.96,0.86,2.32,1.18,3.61,1.1
			c1.29-0.08,2.53-0.53,3.71-1.05c1.35-0.59,2.66-1.28,3.92-2.06c1.09-0.68,2.2-1.51,2.68-2.67
			C228.89,123.054,228.85,123.184,228.81,123.314z"/>
		<path fill="#C41845" d="M224.11,213.244c-1.06-0.88-1.97-1.94-2.65-3.14l-0.02,0.01c-0.31,1.33-1.04,2.54-2.03,3.46
			c-0.71,0.67-1.54,1.19-2.46,1.5c-2.21,0.76-4.79,0.31-6.6-1.15c-1.67-1.35-2.62-3.37-3.84-5.14c-0.43-0.62-0.89-1.2-1.38-1.75
			l0.6-0.6c6.58,2.03,13.88,0.35,19.83-3.12c4.7-2.75,8.72-6.54,12.21-10.72c5.41-6.48,9.71-14.2,10.53-22.6
			c0.82-8.4-2.37-17.49-9.34-22.23c-2.6-1.77-5.8-2.91-8.9-2.35l-0.01-0.03c0.15-0.06,0.31-0.13,0.46-0.19
			c2.38-0.96,4.87-1.71,7.42-1.83c4.55-0.22,9.08,1.64,12.5,4.65c3.42,3.02,5.78,7.11,7.15,11.46c3.37,10.71,0.51,23.16-7.21,31.32
			c-2.5,2.64-5.44,4.84-8.04,7.38c-2.6,2.54-4.93,5.55-5.75,9.1c-0.63,2.67-0.54,5.87-2.68,7.59c-1.55,1.25-3.8,1.21-5.71,0.63
			C226.7,215.034,225.31,214.254,224.11,213.244z"/>
		<path fill="#D32A5E" d="M238.96,147.764c6.97,4.74,10.16,13.83,9.34,22.23c-0.82,8.4-5.12,16.12-10.53,22.6
			c-3.49,4.18-7.51,7.97-12.21,10.72c-5.95,3.47-13.25,5.15-19.83,3.12l-0.6,0.6c-3.44-3.9-8.29-6.42-12.9-8.93
			c-2.72-1.48-5.48-3.08-7.89-5.02c4.43,1.63,9.37,1.67,13.93,0.49c4.63-1.2,8.89-3.62,12.57-6.67c4.73-3.93,8.6-9.03,10.43-14.9
			c1.8-5.8,1.45-12.37-1.54-17.65c0.11-0.43,0.23-0.86,0.35-1.29c2.2-3.56,6.03-6.03,9.97-7.68l0.01,0.03
			C233.16,144.854,236.36,145.994,238.96,147.764z"/>
		<path fill="#105147" d="M228.88,122.494c0.05,0.13,0.05,0.27,0.03,0.4c0,0.01,0,0.01,0,0.02c-0.48,1.16-1.59,1.99-2.68,2.67
			c-1.26,0.78-2.57,1.47-3.92,2.06c-1.18,0.52-2.42,0.97-3.71,1.05c-1.29,0.08-2.65-0.24-3.61-1.1c-0.56-0.5-0.98-1.22-0.9-1.96
			l-0.03-0.02c0.33-0.45,0.85-0.74,1.35-1c2.65-1.34,5.5-2.28,8.42-2.79c1.42-0.25,2.91-0.39,4.28,0.08
			C228.43,122.004,228.77,122.184,228.88,122.494z"/>
		<path fill="#9B123C" d="M224.11,213.244c-0.03,0.5-0.07,1.01-0.28,1.46c-0.21,0.46-0.64,0.86-1.15,0.89
			c-0.22,0.01-0.44-0.06-0.65-0.13c-1.04-0.36-1.96-1.02-2.62-1.89c0.99-0.92,1.72-2.13,2.03-3.46l0.02-0.01
			C222.14,211.304,223.05,212.364,224.11,213.244z"/>
		<path fill="#27A092" d="M214.69,138.714l-0.22,0.22c-0.05-0.03-0.11-0.05-0.16-0.08c-4.84-2.31-10.4-2.91-15.73-2.24
			c-5.26,0.65-10.32,2.5-15.06,4.89c-0.28-0.12-0.55-0.25-0.83-0.37c3.12-4.28,7.22-8.17,12.36-9.45c3.64-0.9,7.55-0.38,11.01,1.06
			C209.31,134.094,212.19,136.224,214.69,138.714z"/>
		<path fill="#32B7A4" d="M214.31,138.854l-0.11,0.23c-1.49,3.4-4.95,5.63-8.56,6.55c-1.22,0.31-2.46,0.49-3.71,0.56
			c-2.71,0.15-5.46-0.21-8.09-0.87c-3.57-0.9-6.96-2.34-10.32-3.82c4.74-2.39,9.8-4.24,15.06-4.89
			C203.91,135.944,209.47,136.544,214.31,138.854z"/>
	</g>
</g>
<g>
	<g>
		<path fill="#E8AD80" d="M279.421,117.573l0.089,0.824c-0.156,0.045-0.312,0.078-0.467,0.111c-2.593,0.512-5.242-0.256-7.757-1.013
			c-1.258-0.378-2.537-0.768-3.584-1.569c-0.211-0.167-0.434-0.356-0.556-0.601c-0.145-0.289-0.156-0.634-0.167-0.968
			c0-0.022,0-0.056,0-0.078c-0.022-1.135-0.056-2.248-0.078-3.383l0.022-0.323c0.367,0.022,0.746,0.045,1.113,0.056
			C270.696,114.356,274.892,116.927,279.421,117.573z"/>
		<path fill="#E8AD80" d="M281.937,114.011c0.045,0.69,0,1.38-0.178,2.059c-0.167,0.645-0.467,1.269-0.968,1.692
			c-0.367,0.312-0.812,0.512-1.28,0.634l-0.089-0.824c-4.53-0.646-8.725-3.216-11.385-6.945c4.363,0.189,8.736,0.078,13.088-0.323
			c0.312,0.979,0.612,1.992,0.746,3.016h0.011C281.903,113.544,281.926,113.778,281.937,114.011z"/>
		<path fill="#F4C49D" d="M243.941,88.614l-3.806,1.402c-1.38,0.245-2.805,0.267-4.173-0.044c-1.725-0.401-3.361-1.369-4.363-2.827
			c-0.779-1.146-1.146-2.526-1.291-3.906c-0.245-1.959-0.1-3.962,0.39-5.876c0.156-0.646,0.378-1.313,0.69-1.925
			c0.033-0.067,0.056-0.122,0.089-0.178c0.579-1.068,1.413-1.959,2.56-2.27c0.011-0.011,0.033-0.022,0.056-0.022
			c0.3-0.156,0.623-0.267,0.979-0.323c1.413-0.211,2.782,0.512,3.973,1.28c0.423,0.267,0.835,0.556,1.224,0.857
			c0.434,0.356,0.59,0.913,0.89,1.369c0.39,2.081,0.79,4.162,1.235,6.232c0.334,1.569,0.69,3.138,1.102,4.697
			C243.63,87.591,243.774,88.114,243.941,88.614z"/>
		<path fill="#FFDAB6" d="M294.655,111.928c-2.89,0.49-5.81,0.86-8.73,1.08c-4.6,0-9.09-1.35-13.2-3.56
			c-4.1-2.21-7.82-5.27-10.88-8.69c-4.85-5.44-8.27-12.21-9.44-19.4c-0.29-1.8-0.46-3.63-0.46-5.46
			c-0.02-5.47,1.25-10.96,3.84-15.77v-0.08c6.89,0.26,13.78,0.34,20.64,0.22c11.71-0.21,23.55-1.05,34.68-4.67
			c4.1-1.33,8.1-3.08,11.84-5.25l0.4,0.72c-0.4,12.57-1.93,25.12-4.59,37.41c-1.23,5.65-2.81,11.5-6.76,15.74
			C307.605,108.938,301.005,110.848,294.655,111.928z"/>
		<path fill="#E8AD80" d="M295.985,81.556c0.141,1.03,0.135,2.08-0.014,3.105c-0.231,1.555-1.249,5.739-1.249,5.739
			c1.754,0.986,4.934,2.899,6.224,4.446c0.414,0.485,0.776,1.054,0.864,1.688c0.105,0.814-0.284,1.65-0.905,2.209
			c-0.609,0.548-1.419,0.855-2.235,0.982c-1.941,0.327-3.947-0.224-5.671-1.174c-1.725-0.939-3.203-2.258-4.659-3.575l-0.784-1.457
			c-0.526-1.467-0.313-3.079-0.027-4.618c0.528-2.858,1.293-5.749,2.857-8.2c0.417-0.655,0.888-1.283,1.53-1.716
			c0.642-0.422,1.465-0.627,2.191-0.382c0.585,0.198,1.046,0.665,1.344,1.195C295.749,80.339,295.895,80.956,295.985,81.556z"/>
		<path fill="#EAAC81" d="M246.891,91.018c0.278-0.022,0.512-0.189,0.712-0.401c-0.178,0.312-0.401,0.59-0.679,0.824
			c-0.223,0.189-0.467,0.334-0.746,0.345c-0.479,0.011-0.857-0.39-1.124-0.779c-0.49-0.735-0.835-1.547-1.113-2.393
			c-0.167-0.501-0.312-1.024-0.445-1.536c-0.412-1.558-0.768-3.127-1.102-4.697l1.402,4.196c0.49,1.335,1.013,2.682,1.914,3.773
			C246.011,90.718,246.423,91.085,246.891,91.018z"/>
		<path fill="#EAAC81" d="M250.352,75.916c-0.011,0.367-0.033,0.723-0.067,1.091c-0.211,2.738-0.568,5.476-1.113,8.169
			c0.389-3.061,0.512-6.155,0.479-9.248L250.352,75.916z"/>
		<path fill="#F4C49D" d="M285.921,113.01c-2.537,0.2-5.075,0.312-7.624,0.3c-4.374,0-8.736-0.278-13.066-0.868
			c-0.367-0.045-0.734-0.1-1.102-0.156c-0.445-0.056-0.879-0.122-1.324-0.189c-6.589-1.057-13.5-3.038-17.851-8.091
			c-3.283-3.828-4.674-8.959-4.819-13.989l3.806-1.402c0.278,0.846,0.623,1.658,1.113,2.393c0.267,0.389,0.646,0.79,1.124,0.779
			c0.278-0.011,0.523-0.156,0.746-0.345c0.278-0.234,0.501-0.512,0.679-0.824l0.011-0.011c0.723-0.735,0.968-1.814,1.157-2.827
			c0.156-0.868,0.289-1.725,0.401-2.604c0.545-2.693,0.901-5.431,1.113-8.169c0.033-0.367,0.056-0.723,0.067-1.091l-0.701,0.011
			c-0.056-5.264-0.59-10.562-1.135-15.815l0.901-0.389c2.126,0.134,4.24,0.234,6.366,0.323v0.078
			c-2.593,4.819-3.862,10.306-3.84,15.77c0,1.836,0.167,3.662,0.456,5.465c1.18,7.189,4.596,13.956,9.449,19.398
			c6.11,6.844,14.846,11.686,24.028,11.686L285.921,113.01z"/>
		<path fill="#E8AD80" d="M273.98,86.715c-1.11-3.406-4.903-5.595-8.399-4.909c-3.306,0.649-6.22,3.741-6.305,7.155
			c-0.227,1.47-0.021,3.014,0.747,4.488c1.773,3.402,6.039,4.975,9.546,3.293C273.142,95.027,275.219,90.52,273.98,86.715z"/>
		<path fill="#E8AD80" d="M321.321,88.735c-1.11-3.406-4.903-5.595-8.399-4.909c-3.306,0.649-6.22,3.741-6.305,7.155
			c-0.227,1.47-0.021,3.014,0.747,4.488c1.773,3.402,6.039,4.975,9.546,3.293C320.483,97.046,322.561,92.539,321.321,88.735z"/>
		<path fill="#DD9864" d="M233.373,77.204c-0.617,0.363-0.058,1.325,0.562,0.961c2.309-1.358,3.774,3.715,3.902,5.064
			c0.072,0.759,0.191,2.1-0.185,2.786c-1.422,0.885-2.35,0.81-2.785-0.225c-0.591-0.736-0.595-1.465-0.013-2.188
			c0.353,0.623,1.315,0.063,0.961-0.562c-1.078-1.903-2.72-0.709-2.583,1.152c0.138,1.879,2.002,5.113,4.312,3.741
			C241.29,85.709,237.701,74.66,233.373,77.204z"/>
		<path fill="#3A3A51" d="M286.694,101.904c-0.416,0.662-0.857,1.305-1.357,1.907c-0.264,0.318-0.539,0.631-0.828,0.927
			c-0.524,0.537-0.674,0.759-1.487,0.659c-0.809-0.1-0.959-0.359-1.158-1.132c-0.106-0.411-0.119-0.861-0.133-1.282
			c-0.034-0.983,0.079-1.941,0.293-2.9c0.156-0.698-0.917-0.996-1.073-0.296c-0.435,1.948-0.999,5.833,1.374,6.852
			c2.248,0.965,4.372-2.644,5.331-4.172C288.037,101.857,287.074,101.298,286.694,101.904z"/>
		<path fill="#3A3A51" d="M278.898,78.197c-1.169,1.992-3.973,3.439-5.342,0.79c-1.224-2.359-0.568-5.275,0.568-7.646
			c0-0.089,0.011-0.178,0.056-0.267c1.057-2.215,3.439-3.717,5.342-1.302C281.247,71.965,280.189,76.027,278.898,78.197z"/>
		<path fill="#3A3A51" d="M309.265,80.321c-1.169,1.992-3.973,3.439-5.342,0.79c-1.224-2.359-0.568-5.275,0.568-7.646
			c0-0.089,0.011-0.178,0.056-0.267c1.057-2.215,3.439-3.717,5.342-1.302C311.614,74.089,310.556,78.151,309.265,80.321z"/>
	</g>
	<g>
		<path fill="#18847A" d="M342.914,44.687c-4.518,5.854-10.584,10.306-17.328,13.444c-3.917,1.825-8.058,3.205-12.264,4.162
			c-11.407,2.604-23.271,2.371-34.957,1.525c-6.856-0.501-13.711-1.191-20.533-2.081c-2.115-0.278-4.218-0.579-6.321-0.89
			l-0.924,0.301c0.067,4.908,0.111,9.872-0.234,14.769c-0.011,0.367-0.033,0.723-0.067,1.091c-0.211,2.738-0.568,5.476-1.113,8.169
			c-0.234,1.191-0.32,2.522-0.642,3.69c-0.178,0.646-0.492,1.262-0.837,1.841l0,0c-0.178,0.312-0.49,0.501-0.769,0.734
			c-0.223,0.189-0.467,0.334-0.746,0.345c-0.479,0.011-0.857-0.39-1.124-0.779c-0.49-0.735-0.835-1.547-1.113-2.393
			c-0.167-0.501-0.312-1.024-0.445-1.536c-0.412-1.558-0.768-3.127-1.102-4.697c-0.445-2.07-0.846-4.151-1.235-6.232
			c-0.301-0.456-0.456-1.013-0.89-1.369c-1.859-5.053-1.057-10.584,0.367-15.781c0.857-3.138,2.971-6.544,6.221-6.544
			c2.059,0,3.806,1.425,5.32,2.793c0.178-4.652,1.347-9.872,5.32-12.298c2.426-1.48,5.498-1.591,8.269-0.991
			c2.782,0.612,5.364,1.892,7.946,3.083c0.579,0.267,1.157,0.523,1.736,0.779c8.336,3.639,17.451,6.121,26.488,5.509
			c8.525-0.568,18.964-7.145,21.524-8.837c0.067-0.056,0.089-0.067,0.056-0.033c0.345-0.234,0.534-0.367,0.534-0.367l2.782-1.936
			c2.493-2.014,5.242-3.717,8.18-5.03c1.614-0.723,3.328-1.336,5.097-1.336c1.77,0,3.628,0.712,4.607,2.181
			C346.486,38.611,344.839,42.161,342.914,44.687z"/>
		<path fill="#127065" d="M329.158,24.477c0,6.188-1.792,12.354-5.097,17.595c-0.067,0.033-0.256,0.167-0.545,0.39
			c0.033-0.033,0.011-0.022-0.056,0.033c-2.582,1.836-13.578,9.66-21.824,9.749c-9.048,0.089-17.885-2.727-26.187-6.422
			c-0.579-0.256-1.157-0.512-1.736-0.779c-2.582-1.191-5.164-2.471-7.946-3.083c-2.771-0.601-5.843-0.49-8.269,0.991
			c-3.973,2.426-5.142,7.646-5.32,12.298c-1.514-1.369-3.261-2.793-5.32-2.793c-3.25,0-5.364,3.406-6.221,6.544
			c-1.425,5.197-2.226,10.729-0.367,15.781c-0.389-0.301-0.801-0.59-1.224-0.857c-1.191-0.768-2.56-1.491-3.973-1.28
			c-0.356,0.056-0.679,0.167-0.979,0.323c-0.022,0-0.045,0.011-0.056,0.022c-1.146,0.312-1.981,1.202-2.56,2.27
			c-0.033,0.056-0.056,0.111-0.089,0.178c-1.313-4.396-2.905-10.183-4.196-14.457c-0.679-2.237-1.358-4.518-1.525-6.856
			c-0.167-2.337,0.223-4.786,1.547-6.722c1.335-1.959,3.483-3.216,5.698-4.073c4.563-1.758,9.694-2.014,14.412-0.723l0.056-0.011
			c-0.601-1.703-1.703-3.183-2.593-4.752c-0.935-1.603-1.669-3.45-1.324-5.275c0.601-3.138,4.04-4.819,7.145-5.498
			c7.546-1.636,15.403-0.223,22.837,1.825c7.445,2.048,14.769,4.73,22.414,5.676c1.714,0.211,3.55,0.312,5.042-0.545
			c0.579-3.884,1.235-7.757,1.925-11.619c0.312-1.714,0.634-3.428,1.28-5.03c0.245-0.568,0.579-1.18,1.158-1.369
			c0.835-0.267,1.658,0.423,2.204,1.102c1.914,2.382,3.027,5.32,3.617,8.314c0.612,3.005,0.723,6.077,0.846,9.126l0.612,0.345
			c2.727-4.941,5.776-9.705,9.115-14.257c0.79-1.08,1.725-2.226,3.038-2.471c1.447-0.278,2.927,0.701,3.639,1.992
			C329.047,21.461,329.158,22.996,329.158,24.477z"/>
		<path fill="#127065" d="M324.061,42.072c0.011-0.011,0.022-0.011,0.022-0.011s-0.011,0.011-0.033,0.033
			C324.05,42.083,324.061,42.083,324.061,42.072z"/>
		<path fill="#127065" d="M243.656,39.731c-3.082-4.793-4.694-10.216-4.74-15.913c-0.006-0.71-1.114-0.817-1.108-0.1
			c0.049,6.024,1.736,11.66,4.994,16.726C243.189,41.046,244.039,40.327,243.656,39.731z"/>
		<path fill="#127065" d="M240.7,38.828c-2.842-1.868-5.206-4.283-6.977-7.189c-0.369-0.605-1.381-0.14-1.008,0.473
			c1.874,3.074,4.328,5.644,7.339,7.623C240.652,40.127,241.3,39.222,240.7,38.828z"/>
		<path fill="#127065" d="M237.395,40.237c-2.605-0.584-5.02-1.631-7.243-3.108c-0.597-0.396-1.243,0.509-0.646,0.906
			c2.394,1.591,4.985,2.681,7.788,3.31C237.992,41.502,238.085,40.392,237.395,40.237z"/>
		<path fill="#127065" d="M304.316,31.966c-5.793,3.249-13.299-0.697-18.556-3.423c-5.111-2.65-10.13-5.705-15.821-6.941
			c-5.166-1.122-10.622-0.631-15.535,1.299c-4.265,1.675-9.474,4.684-9.916,9.733c-0.062,0.713,1.046,0.815,1.108,0.1
			c0.552-6.302,9.408-9.462,14.695-10.297c5.958-0.94,11.627,0.433,17.012,2.965c4.782,2.248,9.262,5.13,14.208,7.031
			c4.184,1.608,9.132,2.865,13.277,0.54C305.41,32.625,304.943,31.614,304.316,31.966z"/>
		<path fill="#127065" d="M248.646,42.63c-4.536-1.585-9.798-1.158-14.465-0.309c-4.114,0.749-7.913,2.635-9.951,6.446
			c-4.844,9.06,4.158,15.394,7.479,22.889c0.29,0.655,1.298,0.183,1.008-0.473c-2.915-6.579-10.833-12.07-8.271-20.078
			c1.454-4.546,5.454-6.875,9.933-7.688c4.474-0.812,9.526-1.264,13.875,0.255C248.931,43.908,249.323,42.866,248.646,42.63z"/>
		<path fill="#18847A" d="M338.553,52.284c-0.641-0.321-1.026,0.724-0.391,1.042c2.528,1.267-4.051,5.323-4.408,5.532
			c-1.407,0.821-2.885,1.511-4.4,2.109c-3.158,1.246-6.48,2.044-9.809,2.68c-7.583,1.45-15.309,2.123-23.025,2.167
			c-15.269,0.087-30.448-2.289-45.233-5.981c-0.688-0.172-1.085,0.869-0.391,1.042c17.616,4.399,35.798,6.952,53.977,5.747
			c8.336-0.552,17.126-1.566,24.955-4.648C331.7,61.237,344.243,55.135,338.553,52.284z"/>
		<path fill="#18847A" d="M336.275,26.334c-3.426,2.58-6.126,5.816-8.095,9.624c-0.329,0.636,0.717,1.02,1.042,0.391
			c1.875-3.628,4.505-6.706,7.765-9.161C337.561,26.757,336.846,25.904,336.275,26.334z"/>
		<path fill="#18847A" d="M339.57,28.801c-3.239,1.434-6.126,3.443-8.587,5.992c-0.493,0.511,0.215,1.37,0.713,0.855
			c2.399-2.484,5.189-4.44,8.347-5.839C340.698,29.518,340.226,28.51,339.57,28.801z"/>
	</g>
	<g>
		<path fill="#EDE8EA" d="M264.664,114.434c7.657,9.749,10.116,23.371,6.344,35.191c-0.122,0.367-0.234,0.746-0.156,1.113
			c0.089,0.334,0.334,0.612,0.579,0.857c3.906,3.995,8.814,7,14.156,8.636h1.246v4.04c-2.626-0.067-5.242-0.323-7.824-0.868
			c-5.976-1.258-11.764-4.107-15.681-8.781c-1.48-1.781-2.727-3.929-2.738-6.232c0.556-0.122,1.113-0.256,1.669-0.401l-0.011-0.045
			c-0.022,0-0.056,0-0.078,0l-0.022-0.968c3.773-7.334,5.531-15.481,5.03-23.527c-0.178-2.727-0.779-5.732-3.216-7.39
			c-0.824-0.568-1.781-0.913-2.805-1.102l0.011-0.045c1.146-0.234,2.326-0.412,3.495-0.512V114.434z"/>
		<path fill="#FFFFFF" d="M260.591,148.39c-5.108,1.091-10.417,1.313-15.592,0.634c-1.547-0.2-3.105-0.49-4.541-1.057
			c-0.679-0.256-1.324-0.59-1.925-0.991l-0.99-0.835c-0.679-5.553,0.011-11.229,1.992-16.527c1.313-3.528,3.25-6.945,6.188-9.593
			c2.983-2.693,6.967-4.507,11.174-5.086c1.402-0.189,2.894-0.234,4.262,0.022c1.024,0.189,1.981,0.534,2.805,1.102
			c2.437,1.658,3.038,4.663,3.216,7.39c0.501,8.046-1.258,16.193-5.03,23.527l0.022,0.968c0.022,0,0.056,0,0.078,0l0.011,0.045
			C261.704,148.134,261.147,148.267,260.591,148.39z"/>
		<path fill="#FFFAE3" d="M297.562,133.12c-0.556,0.39-1.102,0.779-1.658,1.169h-0.011c-0.089-0.289-0.189-0.59-0.289-0.879
			C296.249,133.298,296.905,133.198,297.562,133.12z"/>
		<path fill="#32B7A4" d="M343.737,118.53l1.714-2.549l-5.108,28.168c-0.045-0.011-0.089-0.011-0.134-0.011
			c-0.301,0.011-0.49,0.323-0.623,0.601c-1.057,2.204-1.803,4.552-2.215,6.956c-0.49-1.046-1.413-1.892-2.526-2.192
			c-1.113-0.289-2.382,0.011-3.172,0.857c-0.39,0.412-0.646,0.924-0.868,1.447c-0.801,1.814-1.291,3.84-1.024,5.787l-0.067,0.011
			c-0.1-0.59-0.167-1.18-0.189-1.781l-2.671-0.078l0.39-12.754L343.737,118.53z"/>
		<path fill="#FFFAE3" d="M338.662,121.657c1.246-0.924,2.56-1.77,3.917-2.526c0.378-0.223,0.757-0.423,1.157-0.601l-16.494,24.462
			l-1.135-0.289l0.1-0.378c-0.078-0.2-0.134-0.401-0.178-0.612c0.089,0.167,0.178,0.334,0.256,0.512l0.312,0.022
			c0.234-4.863,2.092-9.582,4.941-13.522C333.51,125.998,335.947,123.638,338.662,121.657z"/>
		<path fill="#FFFFFF" d="M339.475,111.151c0.679-0.545,1.413-1.08,2.27-1.269c-1.758,3.684-2.816,7.701-3.083,11.775
			c-2.716,1.981-5.153,4.34-7.123,7.067c-2.849,3.94-4.708,8.659-4.941,13.522l-0.312-0.022c-0.078-0.178-0.167-0.345-0.256-0.512
			c-0.2-0.801-0.234-1.636-0.223-2.46C325.875,128.479,331.039,117.851,339.475,111.151z"/>
		<path fill="#32B7A4" d="M334.545,176.09l-0.49,2.716l-4.93,7.345l-3.339,4.986l1.035-34.011l0.033-1.38l2.671,0.078
			c0.022,0.601,0.089,1.191,0.189,1.781c0.278,1.658,0.846,3.272,1.681,4.73c0.968,1.703,2.571,3.317,4.53,3.283
			c0.178,0,0.356-0.022,0.534-0.056L334.545,176.09z"/>
		<path fill="#32B7A4" d="M292.298,134.077l33.811,8.625l1.135,0.289l-0.39,12.754l-0.033,1.38l-2.126-0.067
			c0-0.879-0.245-1.714-0.879-2.337c-1.358-1.347-3.662-0.901-5.42-0.134c-3.417,1.502-6.444,3.895-8.659,6.878
			c0.768-2.582,0.924-5.342,0.456-8.002c-1.814,0.467-2.537,2.549-3.227,4.262c-0.835,2.103-1.992,4.073-3.45,5.821
			c-0.111-0.356-0.234-0.712-0.367-1.057l-0.011-0.022c-1.859,0.779-3.906,1.057-5.91,1.28c-3.45,0.378-6.934,0.623-10.395,0.523
			v-4.04v-27.545L292.298,134.077z"/>
		<path fill="#32B7A4" d="M304.329,172.273l-0.134-0.167c0.045-0.312,0.089-0.623,0.122-0.935l0.456,0.045
			c2.537,0.679,5.264,0.145,7.713-0.79c5.053-1.925,9.516-5.676,11.586-10.617c0.356-0.846,0.623-1.825,0.623-2.749l2.126,0.067
			l-1.035,34.011v0.011c-1.135-0.579-2.315-1.091-3.506-1.514c-4.975-1.781-10.283-2.359-15.559-2.626
			c-1.625-0.089-3.25-0.134-4.886-0.156v-0.011l-15.002-1.336v-5.932c6.344-1.102,12.387-3.417,17.495-7.29V172.273z"/>
		<path fill="#FFFAE3" d="M295.893,134.289h0.011c0.556-0.39,1.102-0.779,1.658-1.169c3.261-0.423,6.555-0.512,9.816-0.178
			c2.27,0.223,4.518,0.668,6.7,1.324c2.994,0.913,5.865,2.226,8.447,3.973c1.369,0.935,2.693,2.037,3.506,3.472
			c0.044,0.211,0.1,0.412,0.178,0.612l-0.1,0.378l-33.811-8.625c1.091-0.256,2.192-0.479,3.305-0.668
			C295.704,133.699,295.804,134,295.893,134.289z"/>
		<path fill="#E8701F" d="M314.078,134.267c-2.181-0.657-4.429-1.102-6.7-1.324c-3.261-0.334-6.555-0.245-9.816,0.178
			c2.838-2.014,5.609-4.151,7.768-6.856l0.167,0.145C308.58,128.78,311.451,131.406,314.078,134.267z"/>
		<path fill="#EDE8EA" d="M305.753,125.564c0,0.167-0.111,0.323-0.211,0.456c-0.067,0.078-0.134,0.167-0.211,0.245
			c-2.159,2.704-4.93,4.841-7.768,6.856c-0.657,0.078-1.313,0.178-1.959,0.289c-1.547-4.418-3.951-8.514-6.611-12.376
			c-1.859-2.693-3.917-5.375-6.744-7.034l-0.312,0.011c-0.011-0.234-0.033-0.467-0.056-0.69l0.033-0.011
			c4.975,0.746,9.627,2.871,14.045,5.264c3.383,1.825,6.711,3.84,9.493,6.488C305.597,125.207,305.742,125.363,305.753,125.564z"/>
		<path fill="#E8701F" d="M303.516,163.548c0.79,2.448,1.068,5.064,0.801,7.624c-0.033,0.312-0.078,0.623-0.122,0.935l0.134,0.167
			v0.011c-5.108,3.873-11.151,6.188-17.495,7.29v-15.303c3.461,0.1,6.945-0.145,10.395-0.523c2.003-0.223,4.051-0.501,5.91-1.28
			l0.011,0.022C303.283,162.835,303.405,163.192,303.516,163.548z"/>
		<path fill="#EDE8EA" d="M290.517,187.142l0.011,0.1c-3.227,1.135-6.522,2.003-9.861,2.649c-9.004,0.267-18.074-2.237-25.631-7.156
			c-4.708-3.072-8.992-7.368-10.361-12.788c0.234-2.037,0.479-4.084,0.735-6.121c2.526,4.919,6.221,9.337,11.007,12.109
			c4.162,2.393,8.97,3.45,13.745,4.007c5.509,0.634,11.196,0.59,16.672-0.367v5.932l15.002,1.336v0.011
			C298.063,186.786,294.29,186.875,290.517,187.142z"/>
		<path fill="#FFFFFF" d="M288.993,121.034c2.66,3.862,5.064,7.957,6.611,12.376c-1.113,0.189-2.215,0.412-3.305,0.668l-5.464-1.391
			v27.545h-1.246c-5.342-1.636-10.25-4.641-14.156-8.636c-0.245-0.245-0.49-0.523-0.579-0.857c-0.078-0.367,0.033-0.746,0.156-1.113
			c3.773-11.819,1.313-25.441-6.344-35.191v-0.033c0.69-0.067,1.369-0.1,2.059-0.111l0.256-0.011c0,0.022,0,0.056,0,0.078
			c0.011,0.334,0.022,0.679,0.167,0.968c0.122,0.245,0.345,0.434,0.556,0.601c1.046,0.801,2.326,1.191,3.584,1.569
			c2.515,0.757,5.164,1.525,7.757,1.013c0.156-0.033,0.312-0.067,0.467-0.111c0.467-0.122,0.913-0.323,1.28-0.634
			c0.501-0.423,0.801-1.046,0.968-1.692c0.178-0.679,0.223-1.369,0.178-2.059l0.312-0.011
			C285.075,115.659,287.134,118.341,288.993,121.034z"/>
		<path fill="#E8701F" d="M245.41,163.826c0-0.011-0.011-0.011-0.011-0.022c-2.537-4.93-3.962-10.35-4.953-15.804l0.011-0.033
			c1.436,0.568,2.994,0.857,4.541,1.057c5.175,0.679,10.484,0.456,15.592-0.634c0.011,2.304,1.258,4.452,2.738,6.232
			c3.917,4.674,9.705,7.523,15.681,8.781c2.582,0.545,5.197,0.801,7.824,0.868v15.303c-5.476,0.957-11.163,1.002-16.672,0.367
			c-4.774-0.556-9.582-1.614-13.745-4.007C251.632,173.163,247.937,168.745,245.41,163.826z"/>
		<path fill="#FFDAB6" d="M342.225,152.328c-0.03,3.42-0.36,6.96-1.97,9.97c-0.81,1.53-2.14,2.97-3.8,3.26
			c-0.17,0.04-0.35,0.06-0.53,0.06c-1.96,0.03-3.56-1.58-4.53-3.28c-0.83-1.46-1.4-3.08-1.68-4.73l0.07-0.01
			c-0.27-1.95,0.22-3.98,1.02-5.79c0.22-0.52,0.48-1.04,0.87-1.45c0.79-0.84,2.06-1.14,3.17-0.86c1.11,0.31,2.04,1.15,2.53,2.2
			c0.41-2.41,1.15-4.76,2.21-6.96c0.14-0.28,0.32-0.59,0.62-0.6c0.05,0,0.09,0,0.14,0.01c0.23,0.06,0.41,0.31,0.53,0.55
			C342.105,146.998,342.255,149.718,342.225,152.328z"/>
		<path fill="#FFDAB6" d="M323.815,154.718c0.64,0.63,0.88,1.46,0.88,2.34c0,0.93-0.27,1.9-0.62,2.75
			c-2.07,4.94-6.54,8.69-11.59,10.62c-2.45,0.93-5.17,1.47-7.71,0.79l-0.46-0.05c0.27-2.56-0.01-5.17-0.8-7.62
			c1.46-1.75,2.62-3.72,3.45-5.82c0.69-1.71,1.42-3.8,3.23-4.26c0.47,2.66,0.31,5.42-0.46,8c2.22-2.98,5.24-5.38,8.66-6.88
			C320.155,153.818,322.455,153.378,323.815,154.718z"/>
		<path fill="#1CA38C" d="M328.521,142.486c-0.036-1.928-3.036-1.934-3,0c0.294,15.69-0.203,31.362-1.49,47.002
			c-0.158,1.924,2.842,1.914,3,0C328.318,173.849,328.815,158.176,328.521,142.486z"/>
	</g>
	<g>
		<path fill="#1B7566" d="M417.814,256.722c0.134,0.178,0.312,0.345,0.523,0.356c0.045,0,0.078-0.011,0.122-0.033l0.167,0.312
			c-8.948,4.841-18.374,8.803-28.112,11.786c-1.714,0.534-3.461,1.035-5.242,1.157c-1.425-3.394-2.916-6.767-4.452-10.116
			c5.776-0.512,11.385-2.626,16.048-6.065c-2.115-0.846-3.906-2.504-4.897-4.563c-0.089-0.189-0.178-0.401-0.145-0.612
			c0.033-0.2,0.189-0.367,0.334-0.523c0.534-0.556,1.091-1.102,1.658-1.636c1.792-1.681,3.728-3.227,5.776-4.596
			c0.646-0.434,1.48-0.857,2.17-0.479c0.334,0.189,0.545,0.534,0.723,0.879c0.901,1.725,1.347,3.673,1.291,5.609h0.011
			c4.507-1.625,9.226-3.072,13.967-3.339l0.011,0.167c-1.358,2.059-1.324,4.697-1.191,7.156
			C416.678,253.772,416.834,255.464,417.814,256.722z"/>
		<path fill="#FFFFFF" d="M429.11,251.146c-3.406,2.215-6.9,4.285-10.484,6.21l-0.167-0.312c-0.045,0.022-0.078,0.033-0.122,0.033
			c-0.211-0.011-0.389-0.178-0.523-0.356c-0.979-1.258-1.135-2.949-1.235-4.541c-0.134-2.46-0.167-5.097,1.191-7.156l-0.011-0.167
			c1.836-0.1,3.673-0.033,5.509,0.278c2.393,0.401,5.019,1.502,5.754,3.817C429.254,249.677,429.254,250.423,429.11,251.146z"/>
		<path fill="#E8701F" d="M413.551,264.646c-8.603,4.129-17.796,7.056-27.233,8.436l-0.067-0.445
			c-0.323-0.779-0.646-1.558-0.979-2.337c1.781-0.122,3.528-0.623,5.242-1.157c9.738-2.983,19.165-6.945,28.112-11.786
			c3.584-1.925,7.078-3.995,10.484-6.21c-0.278,1.402-1.135,2.76-2.059,3.884C423.512,259.326,418.57,262.231,413.551,264.646z"/>
		<path fill="#FCD660" d="M395.355,244.257l0.045,0.022c-0.49,0.846-1.124,1.58-1.825,2.248c-0.746,0.701-1.569,1.336-2.393,1.925
			c-2.048,1.48-4.185,2.838-6.388,4.073l-0.412-0.768c-1.558-4.908-3.929-9.516-6.355-14.056
			c-4.997-9.382-10.283-18.664-16.816-27.055c-6.522-8.38-14.357-15.893-23.661-21.034c-2.671-1.469-5.464-2.76-8.425-3.461
			l4.93-7.345l0.49-2.716c9.015,3.183,17.918,6.833,25.441,12.687c6.744,5.253,12.097,12.075,17.083,19.02
			C385.06,218.916,392.461,230.868,395.355,244.257z"/>
		<path fill="#FFFFFF" d="M393.574,246.527l0.245,0.256c-0.568,0.534-1.124,1.08-1.658,1.636c-0.145,0.156-0.301,0.323-0.334,0.523
			c-0.033,0.211,0.056,0.423,0.145,0.612c0.991,2.059,2.782,3.717,4.897,4.563c-4.663,3.439-10.272,5.553-16.048,6.065
			c-0.623-1.335-1.246-2.671-1.881-4.007l-0.278-0.601c2.092-0.913,4.14-1.925,6.132-3.049c2.204-1.235,4.34-2.593,6.388-4.073
			C392.005,247.863,392.828,247.229,393.574,246.527z"/>
		<path fill="#EABC3B" d="M335.858,200.775c-0.323-0.645-0.69-1.269-1.08-1.87c-2.192-3.361-5.387-5.943-8.992-7.757v-0.011
			l3.339-4.986c2.96,0.701,5.754,1.992,8.425,3.461c9.304,5.142,17.139,12.654,23.661,21.034
			c6.533,8.391,11.819,17.673,16.816,27.055c2.426,4.541,4.797,9.148,6.355,14.056l0.412,0.768c-1.992,1.124-4.04,2.137-6.132,3.049
			c-1.113,0.479-2.248,0.924-3.383,1.336c-3.083-10.05-8.703-19.209-15.414-27.322c-6.41-7.768-13.823-14.657-21.402-21.301
			c-0.078-0.412-0.178-0.812-0.289-1.224C337.605,204.904,336.882,202.756,335.858,200.775z"/>
		<path fill="#FFFFFF" d="M344.327,287.283c-0.056,0-0.122-0.011-0.167-0.045c-0.167-0.122-0.211-0.367-0.223-0.59
			c-0.078-1.591,0.757-3.061,1.603-4.418c1.291-2.092,2.793-4.274,5.086-5.175l0.089-0.134c1.558,0.957,3.027,2.081,4.34,3.383
			c1.725,1.703,3.25,4.118,2.515,6.422c-0.234,0.735-0.646,1.347-1.191,1.859c-4.04-0.145-8.08-0.456-12.097-0.935L344.327,287.283z
			"/>
		<path fill="#E8701F" d="M356.38,288.585c-1.035,0.979-2.504,1.603-3.917,1.992c-5.364,1.469-11.074,1.013-16.56,0.1
			c-9.415-1.558-18.63-4.452-27.144-8.748l0.2-0.401c0.189-0.835,0.367-1.658,0.545-2.493c1.525,0.924,3.25,1.525,4.953,2.081
			c9.694,3.161,19.699,5.342,29.826,6.533C348.3,288.128,352.34,288.44,356.38,288.585z"/>
		<path fill="#1B7566" d="M337.36,271.613c4.619,1.269,9.315,2.793,13.355,5.309l-0.089,0.134c-2.293,0.901-3.795,3.083-5.086,5.175
			c-0.846,1.358-1.681,2.827-1.603,4.418c0.011,0.223,0.056,0.467,0.223,0.59c0.045,0.033,0.111,0.045,0.167,0.045l-0.045,0.367
			c-10.128-1.191-20.133-3.372-29.826-6.533c-1.703-0.556-3.428-1.157-4.953-2.081c0.79-3.595,1.514-7.201,2.17-10.818
			c5.008,2.894,10.829,4.385,16.616,4.251c-1.235-1.914-1.736-4.296-1.369-6.544c0.033-0.211,0.078-0.423,0.223-0.579
			c0.156-0.156,0.378-0.2,0.59-0.245c0.345-0.067,0.701-0.134,1.046-0.2c0.011,0.011,0.011,0,0.011,0
			c2.126-0.056,4.24-0.245,6.333-0.623c0.757-0.022,1.502-0.022,2.259,0c0.779,0.022,1.714,0.156,2.059,0.857
			c0.167,0.345,0.134,0.757,0.089,1.135C339.275,268.207,338.529,270.055,337.36,271.613z"/>
		<path fill="#FCD660" d="M309.882,209.367c-11.764,2.46-23.817,3.472-35.814,3.005c-5.876-0.234-11.764-0.812-17.44-2.371
			c-2.003-0.545-4.029-1.235-5.631-2.571l-0.223,0.122c-0.256-0.467-0.479-0.957-0.69-1.447c-1.491-3.483-2.07-7.29-2.404-11.074
			c-0.122-1.28-0.234-2.615-0.935-3.695l0.134-0.857c0.868,0.156,1.747,0.234,2.615,0.323c10.372,0.924,20.99,1.046,31.173-0.913
			c3.339-0.646,6.633-1.514,9.861-2.649l-0.011-0.1c3.773-0.267,7.546-0.356,11.318-0.289c1.636,0.022,3.261,0.067,4.886,0.156
			c5.275,0.267,10.584,0.846,15.559,2.626c1.191,0.423,2.371,0.935,3.506,1.514c3.606,1.814,6.8,4.396,8.992,7.757
			c0.39,0.601,0.757,1.224,1.08,1.87c1.024,1.981,1.747,4.129,2.315,6.288c0.111,0.412,0.211,0.812,0.289,1.224
			c2.07,8.714,1.814,17.851,1.013,26.788c-0.835,9.36-2.237,18.697-2.103,28.09l0.156,0.634c-0.801,0.189-1.603,0.356-2.404,0.479
			c-2.126,0.067-4.24,0.267-6.333,0.623c0,0,0,0.011-0.011,0c-4.441,0.145-8.926-0.267-13.333-0.801
			c-0.979-0.111-1.981-0.256-2.938-0.512c-1.046-0.267-2.026-0.668-2.849-1.324c1.614-8.48,2.693-17.061,3.239-25.675
			c0.345-5.587,0.467-11.274-0.924-16.694c0.044-0.011,0.089-0.011,0.134-0.022c-0.223-1.391-0.456-2.771-0.701-4.162
			C311.051,213.563,310.672,211.392,309.882,209.367z"/>
		<path fill="#FFFFFF" d="M328.78,264.902c-0.345,0.067-0.701,0.134-1.046,0.2c-0.211,0.045-0.434,0.089-0.59,0.245
			c-0.145,0.156-0.189,0.367-0.223,0.579c-0.367,2.248,0.134,4.63,1.369,6.544c-5.787,0.134-11.608-1.358-16.616-4.251
			c0.267-1.447,0.523-2.905,0.768-4.363l0.067-0.267c0.957,0.256,1.959,0.401,2.938,0.512
			C319.854,264.635,324.339,265.046,328.78,264.902z"/>
		<path fill="#EABC3B" d="M311.974,219.895c-12.031,1.859-24.295,1.169-36.448,0.39c-4.318-0.267-8.714-0.568-12.765-2.092
			c-5.119-1.903-9.471-5.798-11.986-10.64l0.223-0.122c1.603,1.336,3.628,2.026,5.631,2.571c5.676,1.558,11.563,2.137,17.44,2.371
			c11.997,0.467,24.05-0.545,35.814-3.005c0.79,2.026,1.169,4.196,1.525,6.344c0.245,1.391,0.479,2.771,0.701,4.162
			C312.064,219.884,312.019,219.884,311.974,219.895z"/>
		<path fill="#FFFFFF" d="M255.037,182.735c7.557,4.919,16.627,7.423,25.631,7.156c-10.183,1.959-20.801,1.836-31.173,0.913
			c-0.868-0.089-1.747-0.167-2.615-0.323c-1.436-0.234-2.827-0.623-4.051-1.358l0.056-0.089c0.49-6.377,1.08-12.732,1.792-19.087
			C246.045,175.367,250.33,179.663,255.037,182.735z"/>
		<path fill="#FFFFFF" d="M348.581,273.204c-3.373,1.662-6.067,4.323-7.774,7.673c-0.292,0.572,0.571,1.079,0.863,0.505
			c1.638-3.213,4.18-5.72,7.415-7.314C349.663,273.783,349.157,272.92,348.581,273.204z"/>
		<path fill="#FFFFFF" d="M343.913,271.075c-2.742,1.892-4.949,4.344-6.519,7.284c-0.303,0.568,0.56,1.073,0.863,0.505
			c1.488-2.787,3.559-5.13,6.161-6.925C344.944,271.576,344.444,270.709,343.913,271.075z"/>
		<path fill="#FFFFFF" d="M343.742,264.122c-1.22-0.773-3.145,1.545-3.751,2.286c-1.039,1.27-2.37,3.104-2.539,4.845
			c-1.229-1.036-2.614-1.906-4.244-2.104c-1.31-0.159-3.625,0.13-4.162,1.619c-0.389,1.079,0.594,1.952,1.483,2.34
			c1.862,0.811,4.235,0.408,6.267,0.102c-1.359,2.693-3.622,4.773-6.433,5.961c-0.591,0.25-0.082,1.111,0.505,0.863
			c3.4-1.437,5.974-4.134,7.339-7.548C339.595,271.442,346.316,265.754,343.742,264.122z M330.23,271.762
			c0.317-0.486,0.634-0.972,0.951-1.458c0.313-0.114,0.636-0.169,0.969-0.167c0.648-0.053,1.279,0.02,1.899,0.216
			c1.119,0.354,2.074,1.061,2.948,1.828C335.144,272.448,330.339,273.074,330.23,271.762z M338.517,270.965
			c0.255-1.143,1.048-2.3,1.673-3.179c0.345-0.486,0.727-0.958,1.138-1.391c0.329-0.346,1.679-1.984,1.636-0.475
			c-0.012,0.416-0.792,1.226-1.036,1.554c-0.362,0.486-0.75,0.954-1.156,1.403C340.081,269.64,339.315,270.32,338.517,270.965z"/>
		<path fill="#FFFFFF" d="M414.268,243.502c0.294-0.571-0.569-1.078-0.863-0.505c-0.796,1.547-1.339,3.18-1.512,4.919
			c-0.139,1.4-0.272,3.491,0.606,4.694c0.375,0.515,1.244,0.016,0.863-0.505c-0.768-1.053-0.601-2.948-0.469-4.189
			C413.058,246.355,413.553,244.893,414.268,243.502z"/>
		<path fill="#FFFFFF" d="M408.552,244.271c-1.043,2.847-2.211,6.17-1.352,9.202c0.175,0.618,1.14,0.355,0.964-0.266
			c-0.802-2.829,0.377-6.01,1.352-8.67C409.738,243.931,408.772,243.671,408.552,244.271z"/>
		<path fill="#FFFFFF" d="M403.961,248.732c0.01-0.044,0.026-0.088,0.025-0.133c0.194-0.002,0.379-0.106,0.438-0.353
			c0.528-2.217,1.121-4.89,0.838-7.176c-0.102-0.821-0.67-1.566-1.467-0.901c-1.146,0.954-1.442,3.606-1.505,4.989
			c-0.04,0.863-0.156,2.841,0.591,3.64c-0.003,0.013-0.003,0.027-0.006,0.04c-1.332,0.408-2.607,1.034-3.518,2.12
			c-0.677,0.807-1.598,2.503-0.94,3.556c0.75,1.2,2.081-0.01,2.69-0.664c1.001-1.076,1.734-2.335,2.25-3.702
			c0.715,1.924,0.662,3.97-0.136,5.922c-0.243,0.595,0.724,0.854,0.964,0.266c0.939-2.296,0.883-4.745-0.076-6.982
			C404.199,249.145,404.143,248.877,403.961,248.732z M403.309,244.895c0.013-0.174,0.562-3.633,0.938-3.544
			c0.552,0.131-0.627,5.94-0.782,6.604C403.182,247.311,403.279,245.284,403.309,244.895z M401.26,252.076
			c-0.293,0.422-0.619,0.819-0.975,1.189c-0.154,0.16-0.313,0.315-0.478,0.465c-0.498,0.164-0.678,0.068-0.54-0.289
			c-0.157-0.938,1.028-2.133,1.684-2.614c0.417-0.306,0.872-0.542,1.346-0.734C402.017,250.786,401.69,251.457,401.26,252.076z"/>
		<path fill="#EABC3B" d="M257.447,205.903c-1.327-0.141-2.601-0.505-3.805-1.08c-0.578-0.276-1.086,0.586-0.505,0.863
			c1.371,0.655,2.799,1.056,4.309,1.217C258.087,206.971,258.082,205.971,257.447,205.903z"/>
		<path fill="#EABC3B" d="M267.019,207.423c-1.499-0.238-2.986-0.53-4.463-0.877c-0.626-0.147-0.893,0.817-0.266,0.964
			c1.477,0.347,2.964,0.639,4.463,0.877C267.382,208.487,267.653,207.524,267.019,207.423z"/>
		<path fill="#EABC3B" d="M276.049,208.382c-1.483-0.098-2.965-0.196-4.448-0.294c-0.642-0.042-0.64,0.958,0,1
			c1.483,0.098,2.965,0.196,4.448,0.294C276.692,209.425,276.689,208.425,276.049,208.382z"/>
		<path fill="#EABC3B" d="M287.644,208.367c-1.487,0.065-2.969,0.036-4.452-0.086c-0.641-0.053-0.638,0.947,0,1
			c1.483,0.122,2.965,0.151,4.452,0.086C288.285,209.339,288.289,208.339,287.644,208.367z"/>
		<path fill="#EABC3B" d="M299.244,207.61c-1.753,0.176-3.506,0.352-5.26,0.528c-0.634,0.064-0.641,1.064,0,1
			c1.753-0.176,3.506-0.352,5.26-0.528C299.879,208.546,299.885,207.545,299.244,207.61z"/>
		<path fill="#EABC3B" d="M309.226,205.736c-1.262,0.204-2.523,0.408-3.785,0.613c-0.634,0.103-0.365,1.066,0.266,0.964
			c1.262-0.204,2.523-0.408,3.785-0.613C310.125,206.598,309.856,205.634,309.226,205.736z"/>
		<path fill="#EABC3B" d="M313.448,207.406c-0.162-0.622-1.126-0.359-0.964,0.266c0.426,1.639,0.68,3.294,0.759,4.986
			c0.03,0.641,1.03,0.644,1,0C314.159,210.878,313.896,209.13,313.448,207.406z"/>
		<path fill="#EABC3B" d="M314.465,216.024c-0.037-0.64-1.037-0.644-1,0c0.073,1.259,0.145,2.519,0.218,3.778
			c0.037,0.64,1.037,0.644,1,0C314.61,218.543,314.537,217.284,314.465,216.024z"/>
		<path fill="#EABC3B" d="M315.104,224.79c0-0.643-1-0.645-1,0c0.001,1.267,0.104,2.521,0.295,3.773
			c0.097,0.634,1.06,0.365,0.964-0.266C315.186,227.134,315.105,225.966,315.104,224.79z"/>
		<path fill="#EABC3B" d="M314.516,232.071v4.045c0,0.643,1,0.645,1,0v-4.045C315.516,231.427,314.516,231.426,314.516,232.071z"/>
		<path fill="#EABC3B" d="M315.369,239.487c-0.035-0.64-1.035-0.644-1,0c0.065,1.173,0.035,2.34-0.088,3.509
			c-0.067,0.639,0.933,0.635,1,0C315.404,241.828,315.434,240.66,315.369,239.487z"/>
		<path fill="#EABC3B" d="M313.958,246.496c-0.099,1.213-0.197,2.426-0.296,3.638c-0.052,0.641,0.948,0.638,1,0
			c0.099-1.213,0.197-2.426,0.296-3.638C315.01,245.855,314.01,245.858,313.958,246.496z"/>
		<path fill="#EABC3B" d="M313.185,254.319c-0.074,1.201-0.303,2.363-0.677,3.506c-0.201,0.613,0.765,0.876,0.964,0.266
			c0.402-1.228,0.634-2.483,0.713-3.771C314.224,253.676,313.224,253.678,313.185,254.319z"/>
		<path fill="#EABC3B" d="M335.833,185.876c-1.259-0.268-2.485-0.644-3.669-1.151c-0.585-0.251-1.095,0.61-0.505,0.863
			c1.267,0.543,2.559,0.965,3.908,1.252C336.195,186.974,336.463,186.01,335.833,185.876z"/>
		<path fill="#EABC3B" d="M343.131,189.935c-1.361-0.866-2.722-1.732-4.083-2.598c-0.545-0.346-1.047,0.519-0.505,0.863
			c1.361,0.866,2.722,1.732,4.083,2.598C343.171,191.144,343.673,190.279,343.131,189.935z"/>
		<path fill="#EABC3B" d="M351.144,196.482c-1.237-1.162-2.473-2.324-3.71-3.486c-0.469-0.44-1.177,0.265-0.707,0.707
			c1.237,1.162,2.473,2.324,3.71,3.486C350.906,197.629,351.614,196.923,351.144,196.482z"/>
		<path fill="#EABC3B" d="M358.61,204.121c-1.007-1.381-2.07-2.719-3.191-4.009c-0.423-0.487-1.128,0.223-0.707,0.707
			c1.066,1.226,2.078,2.494,3.035,3.806C358.122,205.141,358.99,204.642,358.61,204.121z"/>
		<path fill="#EABC3B" d="M363.662,210.41c-0.444-0.997-1.095-1.878-1.914-2.599c-0.481-0.424-1.191,0.281-0.707,0.707
			c0.763,0.672,1.345,1.468,1.758,2.396C363.06,211.502,363.922,210.993,363.662,210.41z"/>
		<path fill="#EABC3B" d="M370.001,218.25c-1.088-1.4-2.068-2.876-2.951-4.413c-0.321-0.558-1.185-0.055-0.863,0.505
			c0.927,1.613,1.966,3.146,3.107,4.615C369.688,219.465,370.391,218.753,370.001,218.25z"/>
		<path fill="#EABC3B" d="M375.182,227.803c-0.48-1.855-1.337-3.523-2.541-5.011c-0.405-0.501-1.108,0.211-0.707,0.707
			c1.094,1.353,1.849,2.887,2.284,4.57C374.379,228.692,375.344,228.428,375.182,227.803z"/>
		<path fill="#EABC3B" d="M379.316,235.174c-0.402-1.489-1.066-2.867-1.99-4.102c-0.381-0.509-1.25-0.011-0.863,0.505
			c0.876,1.17,1.508,2.451,1.89,3.863C378.519,236.061,379.484,235.798,379.316,235.174z"/>
		<path fill="#EABC3B" d="M383.254,242.009c-0.267-1.268-0.744-2.465-1.416-3.572c-0.334-0.549-1.199-0.047-0.863,0.505
			c0.632,1.041,1.065,2.142,1.316,3.333C382.422,242.904,383.386,242.638,383.254,242.009z"/>
		<path fill="#EABC3B" d="M386.501,248.48c-0.477-1.14-0.954-2.279-1.431-3.419c-0.245-0.585-1.213-0.328-0.964,0.266
			c0.477,1.14,0.954,2.279,1.431,3.419C385.782,249.331,386.75,249.074,386.501,248.48z"/>
	</g>
</g>
</svg>
