<?xml version="1.0" encoding="utf-8"?>
<!-- Generator: Adobe Illustrator 17.0.0, SVG Export Plug-In . SVG Version: 6.00 Build 0)  -->
<!DOCTYPE svg PUBLIC "-//W3C//DTD SVG 1.1//EN" "http://www.w3.org/Graphics/SVG/1.1/DTD/svg11.dtd">
<svg version="1.1" id="Layer_1" xmlns="http://www.w3.org/2000/svg" xmlns:xlink="http://www.w3.org/1999/xlink" x="0px" y="0px"
	 width="86.861px" height="100.981px" viewBox="255.084 251.294 86.861 100.981"
	 enable-background="new 255.084 251.294 86.861 100.981" xml:space="preserve">
<linearGradient id="SVGID_1_" gradientUnits="userSpaceOnUse" x1="256.722" y1="504.4484" x2="301.8216" y2="504.4484" gradientTransform="matrix(0.999 -0.0447 -0.0447 -0.999 21.5135 804.3854)">
	<stop  offset="0" style="stop-color:#0CBDF7"/>
	<stop  offset="1" style="stop-color:#0C96F7"/>
</linearGradient>
<path fill="url(#SVGID_1_)" d="M292.738,288.491c2.862-0.134,5.58,1.528,6.698,4.249c0.155,0.377,0.612,0.368,1.206,0.149
	l-0.791-20.094l-15.722,0.989c3.221-2.159,5.368-5.912,5.393-10.202c0.039-6.746-5.173-12.247-11.641-12.288
	s-11.743,5.395-11.782,12.14c-0.028,4.871,2.689,9.081,6.633,11.067l-17.648,1.111l0.805,20.276c0.588,0.146,1.11,0.135,1.307-0.256
	c1.023-2.027,2.933-3.433,5.175-3.538c3.461-0.162,6.401,2.838,6.567,6.7s-2.505,7.124-5.966,7.286
	c-2.484,0.116-4.844-1.327-5.814-3.688c-0.132-0.321-0.515-0.322-1.016-0.142l0.926,23.325l19.277-1.056
	c0.179-0.758,0.178-1.437-0.283-1.685c-2.292-1.233-3.893-3.559-4.032-6.303c-0.215-4.236,3.135-7.865,7.481-8.104
	c4.346-0.24,8.044,3,8.259,7.236c0.154,3.041-1.448,5.944-4.097,7.154c-0.372,0.17-0.353,0.667-0.126,1.307l18.285-1.002
	l-0.901-22.882c-0.692-0.177-1.308-0.171-1.539,0.287c-1.178,2.335-3.379,3.955-5.962,4.075c-3.987,0.186-7.374-3.27-7.565-7.719
	C285.674,292.435,288.751,288.677,292.738,288.491z M271.04,260.823c0.01-1.812,0.919-3.276,2.029-3.269s2.002,1.482,1.991,3.294
	c-0.01,1.812-0.919,3.276-2.029,3.269C271.921,264.11,271.029,262.635,271.04,260.823z M281.747,268.273
	c-0.178,1.288-1.795,2.512-3.991,2.498c-2.196-0.014-3.857-1.321-3.962-2.548c-0.242-2.84,2.72-2.803,2.721-0.381
	c0.066,1.532,2.12,1.373,2.261,0.233C279.107,265.405,282.141,265.429,281.747,268.273z M281.776,263.26
	c-1.11-0.007-2.002-1.482-1.991-3.294c0.01-1.812,0.919-3.276,2.029-3.269s2.002,1.482,1.991,3.294
	C283.795,261.804,282.886,263.267,281.776,263.26z"/>
<linearGradient id="SVGID_2_" gradientUnits="userSpaceOnUse" x1="288.5679" y1="500.8647" x2="343.848" y2="500.8647" gradientTransform="matrix(0.999 -0.0452 -0.0452 -0.999 21.6696 806.2746)">
	<stop  offset="0" style="stop-color:#FF9000"/>
	<stop  offset="1" style="stop-color:#FF7200"/>
</linearGradient>
<path fill="url(#SVGID_2_)" d="M329.811,276.677c3.817-2.162,6.334-6.451,6.125-11.281c-0.293-6.739-5.768-11.954-12.23-11.649
	s-11.463,6.015-11.17,12.754c0.173,3.979,2.161,7.417,5.084,9.51l-13.563-0.74l-0.896,16.004c-1.388,1.05-3.553,2.501-3.908,1.638
	c-0.971-2.361-3.332-3.802-5.816-3.685c-3.461,0.163-6.13,3.427-5.962,7.289s3.109,6.86,6.57,6.697
	c2.242-0.106,4.152-1.513,5.173-3.54c0.464-0.92,2.706,0.245,3.436,0.656l-1.455,25.99l16.234,0.736
	c0.246-0.688,0.332-1.339-0.071-1.603c-1.861-1.217-3.06-3.31-2.991-5.649c0.107-3.611,3.198-6.441,6.903-6.322
	c3.705,0.12,6.622,3.144,6.515,6.755c-0.077,2.592-1.635,4.937-3.966,5.767c-0.371,0.132-0.342,0.661-0.124,1.336l14.956,0.678
	l1.573-24.242c-0.414-0.067-0.76-0.011-0.925,0.281c-1.117,1.972-3.091,3.279-5.335,3.268c-3.464-0.016-6.259-3.163-6.243-7.029
	s2.838-6.987,6.302-6.971c2.487,0.011,4.775,1.573,5.633,3.981c0.114,0.32,0.484,0.344,0.976,0.201l1.309-20.17L329.811,276.677z
	 M318.178,261.86c0.259-1.792,1.359-3.105,2.457-2.932s1.778,1.766,1.518,3.557c-0.259,1.792-1.359,3.105-2.457,2.932
	C318.599,265.245,317.919,263.652,318.178,261.86z M327.752,270.834c-0.353,1.248-2.122,2.218-4.293,1.876
	c-2.172-0.342-3.636-1.884-3.571-3.114c0.15-2.847,3.077-2.368,2.745,0.029c-0.145,1.526,1.909,1.675,2.206,0.568
	C325.533,267.601,328.532,268.078,327.752,270.834z M328.469,265.877c-1.098-0.173-1.778-1.765-1.518-3.558
	c0.259-1.792,1.359-3.105,2.457-2.932s1.778,1.766,1.518,3.557C330.667,264.737,329.567,266.049,328.469,265.877z"/>
<text transform="matrix(0.9787 0 0 1 258.209 341.8892)" fill="#0CBDF7" font-family="'ArialMT'" font-size="16.1821">LEARNING</text>
<text transform="matrix(1 0 0 1 272.7588 352.2752)" fill="#FF8500" font-family="'ArialMT'" font-size="7.9336">FROM HOME</text>
</svg>
